<svg width="25" height="30" viewBox="0 0 1228 1472" fill="none" xmlns="http://www.w3.org/2000/svg">
<path fill-rule="evenodd" clip-rule="evenodd" d="M208.758 352.637C255.611 285.723 347.848 269.468 414.774 316.33C481.7 363.192 497.972 455.425 451.118 522.339L404.001 589.63C385.125 616.588 391.68 653.747 418.643 672.627C445.606 691.507 482.766 684.958 501.643 658L751.512 301.149C798.366 234.235 890.602 217.98 957.528 264.842C1024.45 311.704 1040.73 403.938 993.873 470.852L636.585 981.111C617.709 1008.07 624.264 1045.23 651.227 1064.11C678.19 1082.99 715.351 1076.44 734.227 1049.48L958.706 728.891C1005.56 661.977 1097.8 645.722 1164.72 692.584C1231.65 739.446 1247.92 831.68 1201.07 898.593L844.146 1408.33C797.292 1475.24 705.056 1491.5 638.13 1444.64C571.203 1397.77 554.932 1305.54 601.785 1238.63L626.809 1202.89C645.685 1175.93 639.129 1138.77 612.166 1119.89C585.203 1101.01 548.043 1107.56 529.167 1134.52L380.613 1346.68C333.759 1413.59 241.522 1429.85 174.596 1382.98C107.67 1336.12 91.3984 1243.89 138.252 1176.98L394.225 811.409C413.101 784.45 406.545 747.292 379.582 728.412C352.619 709.532 315.459 716.081 296.583 743.039L269.118 782.263C222.264 849.177 130.028 865.432 63.1018 818.57C-3.82428 771.708 -20.0962 679.474 26.7574 612.56L208.758 352.637ZM411.51 63.0771C458.363 -3.83677 550.6 -20.0919 617.526 26.7702C684.452 73.6323 700.724 165.866 653.87 232.78C607.017 299.694 514.78 315.949 447.854 269.087C380.928 222.225 364.656 129.991 411.51 63.0771Z" fill="url(#paint0_linear_0_13)"/>
<defs>
<linearGradient id="paint0_linear_0_13" x1="-86.1085" y1="291.766" x2="561.53" y2="1434.07" gradientUnits="userSpaceOnUse">
<stop stop-color="#76E9FF"/>
<stop offset="1" stop-color="#3C53FF"/>
</linearGradient>
</defs>
</svg>
