<?xml version="1.0" encoding="UTF-8"?>
<svg width="305px" height="30px" viewBox="0 0 305 30" version="1.1" xmlns="http://www.w3.org/2000/svg" xmlns:xlink="http://www.w3.org/1999/xlink">
    <title>10</title>
    <defs>
        <linearGradient x1="10.2880284%" y1="19.8290625%" x2="47.0285157%" y2="97.4624737%" id="linearGradient-1">
            <stop stop-color="#76E9FF" offset="0%"></stop>
            <stop stop-color="#3C53FF" offset="100%"></stop>
        </linearGradient>
    </defs>
    <g id="页面-1" stroke="none" stroke-width="1" fill="none" fill-rule="evenodd">
        <g id="Hash-Space验证码邮件通知" transform="translate(-40, -35)">
            <g id="10" transform="translate(40, 35)">
                <path d="M4.0612511,6.85925532 C4.97272088,5.55767497 6.76712917,5.24151625 8.06912945,6.15304692 C9.37112972,7.06457759 9.68768767,8.85862524 8.7761483,10.160136 L7.85952897,11.469022 C7.49231062,11.9933556 7.61986628,12.716193 8.14442417,13.0834213 C8.66891247,13.4506497 9.39186709,13.3232539 9.75908544,12.7988507 L14.6201184,5.85776136 C15.5315882,4.55618101 17.3259965,4.24002229 18.6279968,5.15155296 C19.9299971,6.06308362 20.246555,7.85713127 19.3350852,9.15864205 L12.3843105,19.0837575 C12.0170921,19.6081608 12.1445782,20.3309285 12.6691361,20.6981569 C13.193694,21.0653853 13.9166486,20.9379895 14.2838669,20.4136558 L18.6508914,14.1778008 C19.5624308,12.8762205 21.3568391,12.5600618 22.6588393,13.4715924 C23.9608396,14.3831231 24.2773976,16.1771707 23.3658582,17.4786815 L16.422251,27.3936387 C15.5107117,28.6952191 13.7163034,29.0113778 12.4143031,28.0998471 C11.1123724,27.1883165 10.7958145,25.3942688 11.7072843,24.0927581 L12.1941252,23.3976124 C12.5613435,22.8732092 12.4337879,22.1504414 11.90923,21.7832131 C11.3846721,21.4159847 10.6617871,21.5433805 10.2945687,22.0677142 L7.40455956,26.194476 C6.49302019,27.4959868 4.69861189,27.8121455 3.39661162,26.9006844 C2.09461134,25.9891537 1.77805339,24.1951061 2.68959276,22.8935257 L7.66934368,15.7828769 C8.03656204,15.2584736 7.90900638,14.5357059 7.38451808,14.1684775 C6.85996019,13.8012491 6.13700557,13.9286449 5.76978722,14.4529786 L5.23548694,15.215962 C4.32401716,16.5174727 2.52960887,16.833701 1.22760859,15.9221704 C-0.0743916829,15.0106397 -0.390949633,13.2165921 0.520520148,11.9150117 L4.0612511,6.85925532 Z M8.00552558,1.22691283 C8.91706495,-0.0745979457 10.7114732,-0.39082624 12.0134735,0.520704427 C13.3154042,1.43223509 13.6319622,3.22628274 12.7204924,4.52786309 C11.8090226,5.82937387 10.0146143,6.14553259 8.71261403,5.2340715 C7.41061375,4.32254083 7.0940558,2.52849318 8.00552558,1.22691283 Z" id="形状" fill="url(#linearGradient-1)"></path>
                <path d="M98.61034,5.36828588 C97.9346359,5.36828588 97.2714578,5.4780091 96.6208056,5.69627272 C95.9687617,5.91509296 95.3793473,6.23097337 94.856042,6.64440098 C94.3271697,7.06165535 93.8998964,7.5679685 93.5756142,8.16069652 C93.2415895,8.77109714 93.0787525,9.45622366 93.0787525,10.2064744 C93.0787525,10.9398179 93.2395019,11.5980181 93.5756142,12.1670898 C93.8978088,12.7134795 94.3222985,13.1814556 94.8456038,13.5703225 C95.3598625,13.9529274 95.942318,14.2646332 96.5887949,14.5070401 C97.2150912,14.7420022 97.8553051,14.9338265 98.5080449,15.0825129 C98.9770712,15.2334954 99.4398346,15.3906703 99.8963349,15.5540375 C100.338918,15.712256 100.731397,15.9011581 101.076555,16.119213 C101.407101,16.328362 101.66597,16.576335 101.860122,16.8616711 C102.034093,17.118063 102.132908,17.4481371 102.132908,17.8738799 C102.132908,18.3565368 102.031309,18.7644679 101.841333,19.1090836 C101.640222,19.4729723 101.381353,19.7725716 101.063334,20.0120563 C100.73766,20.2571767 100.368145,20.4444785 99.9513098,20.5729876 C99.5296037,20.7030273 99.1085934,20.767247 98.6875832,20.767247 C98.2651812,20.767247 97.8664392,20.7174994 97.4899656,20.6195347 C97.1086208,20.520248 96.7558073,20.381859 96.4301332,20.2052721 C96.1072427,20.0302855 95.8212341,19.8175881 95.5707156,19.5669711 C95.3201971,19.3164236 95.1149111,19.0382541 94.9541618,18.7316274 L94.9402441,18.7060926 L94.9235428,18.6827842 C94.6340548,18.2877946 94.2638441,17.9977969 93.8017767,17.9977969 C93.4928039,17.9977969 93.2193212,18.121853 92.9896793,18.3284276 C92.7301143,18.5622766 92.6041591,18.8716863 92.6041591,19.2201984 C92.6041591,19.3129448 92.6132056,19.4061086 92.6299069,19.4993421 C92.6500875,19.6144923 92.6911447,19.7263028 92.7433361,19.8331038 C92.9590603,20.3268235 93.2638578,20.7800492 93.6535533,21.1926419 C94.0432487,21.6051651 94.4969655,21.9648095 95.0126161,22.2725494 C95.5317461,22.5818895 96.0981962,22.8215829 96.7105748,22.9926732 C97.3271286,23.1648768 97.9652549,23.2505958 98.6235618,23.2505958 C99.4106074,23.2505958 100.164946,23.1215302 100.884491,22.8620769 C101.601252,22.6034585 102.237291,22.2384566 102.787736,21.76561 C103.34166,21.2902587 103.782851,20.7177777 104.108525,20.0515761 C104.441158,19.3733378 104.603995,18.6237132 104.603995,17.8097993 C104.603995,17.0468855 104.447421,16.3682993 104.11618,15.7896954 C103.799552,15.2352349 103.382021,14.7601618 102.867067,14.3660071 C102.363246,13.9799929 101.789837,13.6559024 101.150319,13.3921353 C100.528894,13.1356042 99.8879843,12.9031469 99.2275897,12.6947632 L99.2192391,12.6920497 L99.2101926,12.6897536 C98.7940535,12.5793346 98.3563421,12.4582703 97.8970582,12.3264216 C97.4614343,12.2013218 97.0654759,12.0390678 96.709183,11.8409816 C96.3626324,11.6486007 96.0835826,11.4183002 95.8657707,11.1523762 C95.6792736,10.9250676 95.5755868,10.6317997 95.5755868,10.2449506 C95.5755868,9.8427249 95.66466,9.50938062 95.8288888,9.23162851 C96.0063394,8.93286409 96.2352855,8.68537805 96.5192065,8.48631773 C96.811478,8.28155209 97.1420233,8.12409892 97.5143216,8.01562809 C97.8900993,7.9058353 98.2644853,7.85163468 98.6360877,7.85163468 C99.3277971,7.85163468 99.9276497,7.96810688 100.4433,8.19144963 C100.946425,8.40887833 101.43772,8.79572746 101.913009,9.37600116 L101.945019,9.41468608 L101.985381,9.44411723 C102.104377,9.53074082 102.231724,9.6009442 102.366726,9.64596063 C102.491985,9.68770694 102.621419,9.71080657 102.752942,9.71080657 C103.067481,9.71080657 103.348619,9.59656083 103.577565,9.38003664 C103.815558,9.15523277 103.936641,8.86627873 103.936641,8.53968343 C103.936641,8.35203377 103.892801,8.16904578 103.791202,8.00574813 C103.540683,7.57082117 103.228927,7.18759005 102.857324,6.85751589 C102.488505,6.5302944 102.078629,6.25650819 101.628392,6.03622683 C101.180242,5.81671082 100.700082,5.6509084 100.188606,5.5377759 C99.6771312,5.42457382 99.1503465,5.36828588 98.61034,5.36828588 Z M73.9885475,5.43229689 C73.6496516,5.43229689 73.3511171,5.56261495 73.1110369,5.80272581 C72.8646937,6.04868115 72.7408262,6.35788215 72.7408262,6.70604637 L72.7408262,21.8357438 C72.7408262,22.1764633 72.8633019,22.4789849 73.1047739,22.7198611 C73.34555,22.9607373 73.6482599,23.0838193 73.9885475,23.0838193 C74.329531,23.0838193 74.6322408,22.9607373 74.8730169,22.7198611 C75.113793,22.4789849 75.2369646,22.1764633 75.2369646,21.8357438 L75.2369646,16.2967043 C75.2369646,15.751915 75.3455227,15.2476892 75.560551,14.7793652 C75.7804506,14.3010916 76.0727222,13.8886381 76.4380616,13.5389431 C76.8034011,13.1893874 77.2292825,12.9144184 77.7198813,12.7142448 C78.2070005,12.5157411 78.7184758,12.4161066 79.2591782,12.4161066 C79.7984889,12.4161066 80.2751699,12.5192895 80.6961801,12.718489 C81.1276286,12.9226285 81.4922722,13.1979454 81.7935903,13.5450659 C82.0963001,13.8938564 82.3329009,14.3073535 82.5020009,14.7903583 C82.670405,15.2723891 82.7559988,15.7864949 82.7559988,16.3351805 L82.7559988,21.8613482 C82.7559988,22.2065902 82.8763869,22.5148171 83.1276013,22.7526319 C83.3669856,22.9796623 83.6613448,23.0966215 83.9911942,23.0966215 C84.33009,23.0966215 84.6362793,22.9849502 84.8784472,22.7491531 C85.1233986,22.5105034 85.2396113,22.2033897 85.2396113,21.8613482 L85.2396113,16.3351805 C85.2396113,15.4624044 85.0955632,14.6359666 84.8046834,13.858859 C84.5144995,13.0843954 84.1046234,12.4041393 83.5736634,11.8224045 C83.0413116,11.2400435 82.4087524,10.7818777 81.6780734,10.4486726 C80.9390439,10.1115016 80.1304259,9.94555998 79.2591782,9.94555998 C78.7727548,9.94555998 78.3002491,10.0076228 77.842357,10.1323747 C77.389336,10.2559438 76.9620628,10.4303738 76.5612332,10.655943 C76.1624913,10.880399 75.7922806,11.1503585 75.4499054,11.4651256 C75.3775333,11.5318502 75.3065531,11.600175 75.2369646,11.6700304 L75.2369646,6.70604637 C75.2369646,6.36407452 75.1214478,6.05709999 74.8862388,5.80982268 C74.6461585,5.55725751 74.3371857,5.43229689 73.9885475,5.43229689 Z M33.4397635,5.45811002 C33.0991975,5.45811002 32.7964877,5.58091375 32.5526497,5.81865898 C32.3033838,6.0616225 32.1786812,6.37075392 32.1786812,6.7190573 L32.1786812,21.835883 C32.1786812,22.1798726 32.3063065,22.4833683 32.5526497,22.7234791 C32.7964877,22.9612243 33.0991975,23.0839585 33.4397635,23.0839585 C33.7849223,23.0839585 34.0931296,22.9639379 34.3398207,22.7234791 C34.5860943,22.4833683 34.7137196,22.1798726 34.7137196,21.835883 L34.7137196,16.1089155 L42.7198731,16.1089155 L42.7198731,21.835883 C42.7198731,22.176672 42.8429751,22.479124 43.0838904,22.7200002 C43.3276588,22.9637291 43.6357965,23.0839585 43.9810249,23.0839585 C44.325975,23.0839585 44.6343911,22.9641466 44.8839353,22.7268188 C45.1354976,22.4875429 45.2677853,22.1830731 45.2677853,21.835883 L45.2677853,6.7190573 C45.2677853,6.36762295 45.1385595,6.05744787 44.8839353,5.81531928 C44.6343911,5.57792193 44.325975,5.45811002 43.9810249,5.45811002 C43.6357965,5.45811002 43.3276588,5.57840897 43.0838904,5.82213784 C42.840122,6.06579713 42.7198731,6.3738849 42.7198731,6.7190573 L42.7198731,13.5743579 L34.7137196,13.5743579 L34.7137196,6.7190573 C34.7137196,6.37075392 34.5890171,6.0616225 34.3398207,5.81865898 C34.0931296,5.57820024 33.7849223,5.45811002 33.4397635,5.45811002 Z M53.1113106,9.93296651 C52.1976139,9.93296651 51.3361087,10.1075357 50.531666,10.4592483 C49.7352955,10.8076908 49.0393412,11.2846424 48.4475609,11.8899639 C47.8568244,12.4942417 47.3901641,13.1996848 47.0470929,14.0029534 C46.7005423,14.8145712 46.5285892,15.6831728 46.5285892,16.604653 C46.5285892,17.5181318 46.7007511,18.380541 47.0474409,19.187845 C47.3906512,19.9870085 47.8575898,20.6882769 48.4486047,21.2883106 C49.0403155,21.88904 49.7359218,22.3634172 50.531666,22.711651 C51.3361087,23.0632941 52.1976139,23.2378632 53.1113106,23.2378632 C54.0591055,23.2378632 54.9407914,23.0593282 55.7514971,22.697666 C56.2761942,22.4633996 56.7584423,22.1713842 57.1975455,21.8218284 L57.1982414,21.8772814 C57.1982414,22.2089558 57.3019282,22.5109904 57.5183484,22.7588243 C57.7521656,23.0256528 58.0680973,23.1481087 58.4209108,23.1481087 C58.7688532,23.1481087 59.077826,23.0237047 59.3241692,22.7777493 C59.5698165,22.531794 59.6943798,22.2225234 59.6943798,21.8744288 L59.6943798,16.604653 C59.6943798,15.6838685 59.524584,14.8140146 59.1836005,13.9989875 C58.8447046,13.190431 58.3791578,12.483666 57.7869599,11.8825192 C57.1954579,11.2817898 56.5002691,10.8074125 55.704177,10.4592483 C54.8997342,10.1073269 54.0340537,9.93296651 53.1113106,9.93296651 Z M51.5052087,12.7678192 C51.9958074,12.5517125 52.529551,12.4418501 53.1113106,12.4418501 C53.7028126,12.4418501 54.243515,12.5519908 54.738289,12.7683063 C55.2414136,12.9882397 55.6707745,13.2847081 56.0319387,13.6570156 C56.3931028,14.0298102 56.6784155,14.4701642 56.887181,14.9820435 C57.0938587,15.4891916 57.1982414,16.0289018 57.1982414,16.6045834 C57.1982414,17.1710112 57.0938587,17.704042 56.887181,18.2069459 C56.6784155,18.7149289 56.3931028,19.1563265 56.0305469,19.534409 C55.6693827,19.9104736 55.2400219,20.2084727 54.738289,20.4280583 C54.243515,20.6443737 53.7028126,20.7544448 53.1113106,20.7544448 C52.529551,20.7544448 51.9958074,20.6446521 51.5052087,20.4285453 C51.0069552,20.2088902 50.5762026,19.910404 50.2108631,19.5328783 C49.8437839,19.154448 49.553948,18.7127024 49.341216,18.2045107 C49.1308501,17.702233 49.0250756,17.1700371 49.0250756,16.6045834 C49.0250756,16.0298759 49.1311284,15.490931 49.341564,14.9844091 C49.5542959,14.4723906 49.8437839,14.0316887 50.2094714,13.6584767 C50.5755067,13.2847081 51.0062593,12.9878223 51.5052087,12.7678192 Z M64.9093398,9.93296651 C64.3804674,9.93296651 63.8794304,10.0323923 63.4097083,10.2336791 C62.9483367,10.4315566 62.5412441,10.7019335 62.1933018,11.0450882 C61.8453594,11.3883124 61.5718768,11.7886595 61.3728537,12.2432073 C61.1703513,12.7050606 61.0708398,13.1987107 61.0708398,13.7197742 C61.0708398,14.2471693 61.1675677,14.7488903 61.3631114,15.2213194 C61.5565673,15.6877648 61.8244829,16.100775 62.1668582,16.4573581 C62.5106252,16.8158197 62.9184137,17.098651 63.3860482,17.3063388 C63.8613374,17.5176447 64.370725,17.6219409 64.9093398,17.6219409 L67.4291383,17.6219409 C67.6455584,17.6297336 67.853628,17.6678619 68.0547386,17.7359084 C68.2509781,17.8025633 68.4193822,17.8971187 68.5648221,18.0184613 C68.7060867,18.1367425 68.8209077,18.2820197 68.9092851,18.4582587 C68.9886159,18.6180775 69.0345443,18.8131719 69.0345443,19.0536306 C69.0345443,19.301882 68.9872241,19.5089437 68.9009344,19.6835129 C68.80699,19.8760329 68.6845143,20.0391914 68.5335073,20.1761889 C68.3811086,20.3147866 68.2106168,20.4193611 68.0213362,20.4916518 C67.8285761,20.5653341 67.6379037,20.6006793 67.4486231,20.6006793 L62.0242018,20.6006793 C61.697136,20.6006793 61.4034727,20.7140205 61.1745266,20.9493305 C60.9434929,21.1870758 60.8398061,21.4909193 60.8398061,21.8231504 C60.8398061,22.160391 60.9414052,22.4692441 61.1675677,22.7149211 C61.3944262,22.9612939 61.6901772,23.0840281 62.0242018,23.0840281 L67.6024136,23.0840281 C68.1577296,23.0840281 68.680339,22.9778533 69.1653706,22.7618857 C69.6413558,22.5496057 70.056103,22.2597472 70.4047413,21.8920318 C70.7512919,21.5268211 71.0226869,21.1033744 71.2196223,20.6249617 C71.4193412,20.1404262 71.5181568,19.6284077 71.5181568,19.0921068 C71.5181568,18.5558059 71.4193412,18.0453877 71.2189264,17.564331 C71.0212951,17.0880752 70.7436371,16.6660896 70.3887359,16.3011573 C70.0317471,15.9350422 69.6135204,15.6478971 69.1368393,15.4402092 C68.6525036,15.2293208 68.131286,15.1257899 67.5766658,15.1257899 L64.8968139,15.1257899 C64.7096209,15.1257899 64.539825,15.0894707 64.383251,15.0188498 C64.2155427,14.9437065 64.0707987,14.8442807 63.9469312,14.7204333 C63.8244555,14.5979774 63.7284235,14.4557617 63.6581391,14.2909333 C63.5899424,14.1323669 63.5544523,13.9603721 63.5544523,13.7710526 C63.5544523,13.602815 63.5885506,13.4390303 63.6581391,13.2767763 C63.7298152,13.1097215 63.8251514,12.9663229 63.9448436,12.8435192 C64.0645358,12.7205763 64.2071921,12.6190632 64.3755962,12.5397452 C64.5300826,12.467385 64.7019661,12.4291175 64.8968139,12.4291175 L69.5905562,12.4291175 C69.9245808,12.4291175 70.225203,12.3149414 70.4673709,12.0851279 C70.72624,11.8396596 70.8389733,11.5136905 70.8389733,11.155368 C70.8389733,10.802403 70.7234565,10.4806085 70.4555409,10.24669 C70.2112853,10.0343405 69.9155343,9.93296651 69.5905562,9.93296651 L64.9093398,9.93296651 Z M112.498807,9.93296651 C111.584414,9.93296651 110.71943,10.1075357 109.908028,10.4585525 C109.103585,10.8062993 108.398654,11.2798416 107.79393,11.8793882 C107.188511,12.480048 106.712526,13.1866043 106.363887,13.9955782 C106.013161,14.8114402 105.83919,15.682477 105.83919,16.604653 L105.83919,26.2593915 C105.83919,26.6075557 105.963058,26.9168959 106.209401,27.1627121 C106.452265,27.4058843 106.756366,27.5332802 107.100133,27.5332802 C107.448772,27.5332802 107.757744,27.4078325 107.991562,27.1479617 C108.214941,26.8997103 108.322803,26.5953102 108.322803,26.2593915 L108.322803,21.7692976 C108.770953,22.1326297 109.265727,22.4357079 109.807125,22.6781844 C110.642186,23.0523704 111.54127,23.2378632 112.498807,23.2378632 C113.413199,23.2378632 114.278184,23.0632941 115.089586,22.7122772 C115.894028,22.3644608 116.597568,21.8906402 117.198116,21.2904675 C117.798665,20.6902251 118.270475,19.9882609 118.614242,19.187845 C118.960792,18.380541 119.133372,17.5181318 119.133372,16.604653 C119.133372,15.6831728 118.961488,14.8126926 118.614937,13.997248 C118.27117,13.1882046 117.799361,12.48137 117.198116,11.8804318 C116.597568,11.2802591 115.894028,10.8063689 115.089586,10.4585525 C114.278184,10.1075357 113.413199,9.93296651 112.498807,9.93296651 Z M110.870437,12.7691412 C111.374953,12.5517125 111.916351,12.4418501 112.498807,12.4418501 C113.090309,12.4418501 113.633795,12.5519908 114.132744,12.7687237 C114.64074,12.9892834 115.080539,13.2869346 115.455621,13.661399 C115.828615,14.0348893 116.12367,14.475452 116.34009,14.9867747 C116.554423,15.49274 116.662285,16.0308499 116.662285,16.6045834 C116.662285,17.1689935 116.554423,17.700424 116.340786,18.2022146 C116.124366,18.709641 115.828615,19.1512474 115.453533,19.529956 C115.079843,19.9082472 114.640044,20.207429 114.132744,20.4276408 C113.633795,20.6443737 113.090309,20.7544448 112.498807,20.7544448 C111.916351,20.7544448 111.374953,20.6446521 110.870437,20.4272234 C110.358961,20.2068724 109.91777,19.9077601 109.54408,19.529956 C109.168303,19.1506908 108.870464,18.7083191 108.649173,18.199849 C108.432057,17.698615 108.322803,17.168089 108.322803,16.6045834 C108.322803,16.031824 108.432057,15.494549 108.649869,14.9890708 C108.870464,14.476774 109.168303,14.0353763 109.542689,13.661399 C109.916379,13.2874216 110.35757,12.98984 110.870437,12.7691412 Z M126.130492,9.93296651 C125.2161,9.93296651 124.35529,10.1075357 123.550848,10.4592483 C122.75406,10.8076908 122.058175,11.2846424 121.466673,11.8899639 C120.875867,12.4942417 120.409624,13.1996848 120.066553,14.0029534 C119.720002,14.8145712 119.547423,15.6831728 119.547423,16.604653 C119.547423,17.5181318 119.720002,18.380541 120.066553,19.187845 C120.409624,19.9870085 120.876563,20.6882769 121.467369,21.2883106 C122.059567,21.88904 122.755451,22.3634172 123.550848,22.711651 C124.35529,23.0632941 125.2161,23.2378632 126.130492,23.2378632 C127.078287,23.2378632 127.959973,23.0593282 128.770679,22.697666 C129.295376,22.4633996 129.777624,22.1713842 130.216727,21.8218284 L130.217423,21.8772814 C130.218119,22.2089558 130.32111,22.5109904 130.53753,22.7588243 C130.771347,23.0256528 131.087279,23.1481087 131.439397,23.1481087 C131.788035,23.1481087 132.097008,23.0237047 132.343351,22.7777493 C132.588998,22.531794 132.713562,22.2225234 132.713562,21.8744288 L132.713562,16.604653 C132.713562,15.6838685 132.544462,14.8140146 132.202782,13.9989875 C131.863886,13.190431 131.398339,12.483666 130.806837,11.8825192 C130.21464,11.2817898 129.519451,10.8074125 128.723359,10.4592483 C127.918916,10.1073269 127.053235,9.93296651 126.130492,9.93296651 Z M124.52439,12.7678192 C125.014293,12.5517125 125.548733,12.4418501 126.130492,12.4418501 C126.721994,12.4418501 127.262697,12.5519908 127.757471,12.7683063 C128.260595,12.9882397 128.689956,13.2847081 129.050424,13.6570156 C129.412285,14.0298102 129.697597,14.4701642 129.906363,14.9820435 C130.11304,15.4891916 130.217423,16.0289018 130.217423,16.6045834 C130.217423,17.1710112 130.11304,17.704042 129.906363,18.2069459 C129.697597,18.7149289 129.412285,19.1563265 129.049033,19.534409 C128.688564,19.9104736 128.259204,20.2084727 127.757471,20.4280583 C127.262697,20.6443737 126.721994,20.7544448 126.130492,20.7544448 C125.548733,20.7544448 125.014293,20.6446521 124.52439,20.4285453 C124.026137,20.2088902 123.59608,19.910404 123.230045,19.5328783 C122.862618,19.154448 122.57313,18.7127024 122.360189,18.2045107 C122.150032,17.702233 122.044257,17.1700371 122.044257,16.6045834 C122.044257,16.0298759 122.150032,15.490931 122.360885,14.9844091 C122.57313,14.4723906 122.862618,14.0316887 123.228653,13.6584767 C123.594688,13.2847081 124.025441,12.9878223 124.52439,12.7678192 Z M140.339066,9.94576871 C139.400318,9.94576871 138.521415,10.1220773 137.708622,10.4785212 C136.902787,10.8312775 136.202727,11.312682 135.61053,11.9230827 C135.019028,12.5323005 134.554177,13.2449795 134.215977,14.0572932 C133.874993,14.8762166 133.705197,15.7478795 133.705197,16.6687335 C133.705197,17.5829081 133.879864,18.4422559 134.231982,19.2423239 C134.579924,20.033834 135.054518,20.7268227 135.655066,21.3181592 C136.255615,21.9094261 136.957066,22.3744104 137.757334,22.7133904 C138.56456,23.0552927 139.426761,23.2249914 140.339066,23.2249914 C141.189437,23.2249914 142.010581,23.0755397 142.798323,22.7766361 C143.591631,22.4759235 144.272902,22.0357782 144.835873,21.4547392 C145.10518,21.1847101 145.255492,20.8541489 145.255492,20.4767623 C145.255492,20.2904346 145.214434,20.1102993 145.125361,19.9453318 C145.047422,19.802142 144.947215,19.676416 144.823347,19.5713544 C144.707134,19.4725548 144.578396,19.3939326 144.437131,19.3388275 C144.304217,19.2866446 144.163648,19.2543608 144.0196,19.2543608 C143.910346,19.2543608 143.80318,19.2714768 143.698797,19.3022299 C143.603461,19.3301303 143.511604,19.3664496 143.422531,19.4108399 L143.389129,19.4276776 L143.359206,19.4507772 C143.06763,19.6755811 142.792756,19.8694231 142.535278,20.032999 C142.281976,20.1940006 142.035633,20.3247362 141.796249,20.4266667 C141.56104,20.5269275 141.320959,20.5997748 141.076008,20.6457653 C140.828273,20.6921733 140.561749,20.7160382 140.275045,20.7160382 C139.676584,20.7160382 139.135881,20.6020708 138.648066,20.3793543 C138.149117,20.1516281 137.723236,19.8474367 137.365551,19.4668495 C137.006474,19.0844533 136.726729,18.6432644 136.52701,18.1402909 C136.327291,17.6397527 136.227083,17.1159757 136.227083,16.5661768 C136.227083,16.0266057 136.328683,15.5129174 136.531185,15.0220504 C136.735775,14.5268696 137.017608,14.0909685 137.377381,13.7117729 C137.736457,13.3333426 138.157468,13.0304731 138.644587,12.802747 C139.123356,12.5790563 139.636918,12.4625146 140.190843,12.4546523 L140.192234,12.4546523 L140.19293,12.4546523 C140.60559,12.4467205 140.988327,12.490415 141.343924,12.5831614 C141.693258,12.6743075 142.050247,12.8318998 142.414194,13.0615045 L142.416282,13.0626178 L142.41837,13.063731 C142.514402,13.1232195 142.618088,13.1956493 142.728038,13.281925 C142.851906,13.3795418 142.976469,13.4728448 143.101032,13.561834 C143.23673,13.6584072 143.373123,13.7408561 143.510909,13.8073719 C143.666787,13.8821674 143.833103,13.9292016 144.007074,13.9292016 C144.139988,13.9292016 144.271511,13.9001183 144.397466,13.8563542 C144.542906,13.8058412 144.67582,13.7288889 144.796903,13.6309938 C144.92425,13.5278804 145.030025,13.4038938 145.112835,13.2618172 C145.212347,13.091214 145.255492,12.9018249 145.255492,12.7068 C145.255492,12.335397 145.103093,12.0053229 144.844224,11.7249268 L144.84144,11.7215176 L144.837961,11.7181779 C144.274294,11.1360951 143.592327,10.6952541 142.798323,10.3941241 C142.010581,10.0951509 141.189437,9.94576871 140.339066,9.94576871 Z M152.406403,9.93296651 C151.49201,9.93296651 150.627026,10.1075357 149.815624,10.4585525 C149.011181,10.806508 148.304858,11.2826247 147.70083,11.8868329 C147.096802,12.4910412 146.620121,13.1969017 146.272179,14.0012835 C145.921453,14.8127622 145.746786,15.6776066 145.746786,16.5918508 C145.746786,17.5060254 145.921453,18.3708697 146.272179,19.182418 C146.620121,19.9870085 147.096802,20.6911992 147.702222,21.2914415 C148.30625,21.8910577 149.011877,22.3646 149.815624,22.7122772 C150.627026,23.0632941 151.49201,23.2378632 152.406403,23.2378632 C152.78566,23.2378632 153.134298,23.2202602 153.450926,23.1840801 C153.76477,23.1481782 154.059825,23.0962737 154.334699,23.0275314 C154.612357,22.9580934 154.876098,22.8672951 155.125224,22.7545105 C155.363913,22.6464572 155.599818,22.5252537 155.832939,22.3909002 L155.833635,22.3900653 L155.835723,22.3892303 C156.03057,22.2743584 156.193407,22.1200362 156.29779,21.9185407 C156.388255,21.7443194 156.437663,21.557296 156.437663,21.3615058 C156.437663,21.0378327 156.319362,20.7459564 156.109205,20.4956873 C155.879563,20.2224577 155.572678,20.0750237 155.214993,20.0750237 C155.10226,20.0750237 154.988135,20.0906089 154.874706,20.1176049 C154.738312,20.1500974 154.609574,20.2085423 154.489186,20.2843118 C154.320782,20.3801892 154.160032,20.4632643 154.006938,20.5338852 C153.860106,20.6017229 153.709795,20.6560627 153.556004,20.697322 C153.402214,20.7385117 153.234505,20.7693344 153.051488,20.7887464 C152.867078,20.8083672 152.652746,20.8186646 152.406403,20.8186646 C151.897711,20.8186646 151.418246,20.72891 150.965225,20.5507229 C150.505942,20.3702396 150.098153,20.122197 149.739773,19.8065949 C149.381392,19.4910624 149.087729,19.1213292 148.856695,18.6953777 C148.697337,18.4010662 148.578341,18.0905433 148.499706,17.7629739 L157.856572,17.7629739 C158.195468,17.7629739 158.501657,17.6510938 158.738258,17.4080607 C158.966508,17.1736552 159.079241,16.8803178 159.079241,16.5533746 L159.079241,16.5514264 L159.079241,16.5494782 C159.070195,15.6437921 158.888569,14.785975 158.533667,13.9795754 C158.180854,13.180064 157.702781,12.4789348 157.098753,11.8793882 C156.494029,11.2798416 155.788402,10.8062993 154.984656,10.4585525 C154.173254,10.1077444 153.31314,9.93296651 152.406403,9.93296651 Z M150.917905,12.6377099 C151.38554,12.4481817 151.88936,12.3520956 152.43215,12.3520956 C152.976332,12.3520956 153.480849,12.4463726 153.949179,12.6323525 C154.426556,12.8216024 154.84687,13.0783422 155.214297,13.402224 C155.580333,13.7253404 155.880259,14.1070408 156.115468,14.5495517 C156.281785,14.8627882 156.404956,15.1955063 156.484983,15.5487496 L148.439164,15.5487496 C148.513624,15.2075431 148.630532,14.8817132 148.78989,14.5704249 C149.017444,14.1278444 149.309716,13.7442654 149.668096,13.4171135 C150.025781,13.0907269 150.441224,12.8306474 150.917905,12.6377099 Z" id="形状" fill="#232941"></path>
                <path d="M219.277443,22.6403344 L219.280227,22.6414476 L219.282314,22.6425608 C220.125031,22.9927428 221.014371,23.167312 221.946857,23.167312 C222.879342,23.167312 223.768683,22.9927428 224.611399,22.6425608 C225.450636,22.2937009 226.18897,21.8021381 226.822921,21.1685682 C227.456176,20.5443218 227.952342,19.8159878 228.310722,18.9866974 L228.311418,18.9858624 L228.311418,18.9850971 C228.670495,18.1443264 228.854904,17.2643838 228.864647,16.3484002 L228.864647,16.3462433 L228.864647,5.99642868 C228.864647,5.63309664 228.735212,5.30984105 228.479822,5.05240547 C228.231392,4.79309131 227.914068,4.66005974 227.554296,4.66005974 C227.188956,4.66005974 226.864674,4.79114315 226.612764,5.05630179 L226.612068,5.05671926 C226.367812,5.31436356 226.257863,5.64005436 226.257863,5.99642868 L226.257863,11.2742754 C225.9134,10.8430361 225.518137,10.476573 225.070683,10.1779478 C224.214049,9.59781322 223.164655,9.32117435 221.946857,9.32117435 C221.01298,9.32117435 220.122943,9.5006139 219.280227,9.86032793 C218.44934,10.2097445 217.712398,10.7058994 217.070793,11.3468444 C216.427795,11.9808317 215.926758,12.7235681 215.568378,13.5715053 C215.208605,14.4231996 215.029763,15.321928 215.029763,16.2642118 C215.029763,17.1982159 215.209301,18.0886647 215.569073,18.931801 C215.927454,19.7709018 216.428491,20.5086287 217.070793,21.1419898 C217.711702,21.782239 218.447949,22.2822206 219.277443,22.6403344 Z M223.619764,12.2928158 L223.623243,12.2943465 L223.626722,12.295738 C224.162554,12.5148366 224.626013,12.8212545 225.019884,13.2152005 C225.407491,13.6108859 225.710897,14.0712782 225.930101,14.599856 C226.148609,15.1250246 226.257863,15.6786502 226.257863,16.2642118 C226.257863,16.8395455 226.148609,17.3883703 225.930797,17.9138172 C225.711593,18.4340458 225.407491,18.8911679 225.018492,19.2881057 C224.622533,19.6921404 224.162554,20.0072555 223.635769,20.2345641 C223.112464,20.4514362 222.550885,20.5611594 221.946857,20.5611594 C221.353267,20.5611594 220.795863,20.4518537 220.272558,20.2349816 C219.75482,20.0080208 219.299015,19.6929754 218.901665,19.2881057 L218.900274,19.286575 L218.898882,19.2851139 C218.502228,18.8880369 218.189775,18.431054 217.962221,17.9115212 C217.744409,17.3867701 217.635851,16.8387802 217.635851,16.2642118 C217.635851,15.6796243 217.745105,15.1269032 217.962917,14.6025695 C218.190471,14.0739221 218.502923,13.6129733 218.898882,13.2167312 C219.296232,12.819863 219.752732,12.5128189 220.271166,12.2939986 L220.272558,12.293442 L220.27395,12.2928158 C220.797255,12.0673857 221.353963,11.9539749 221.946857,11.9539749 C222.540446,11.9539749 223.096458,12.0673857 223.619764,12.2928158 Z M254.3723,7.91000993 L254.375084,7.91321048 L254.377867,7.91634146 C254.664572,8.20272114 255.025736,8.3449369 255.432829,8.3449369 C255.839921,8.3449369 256.200389,8.20272114 256.487094,7.91634146 C256.775886,7.62745699 256.928981,7.26927366 256.928981,6.86203841 C256.928981,6.45069811 256.779366,6.08889676 256.483615,5.80439566 C256.197606,5.52031202 255.837834,5.3792095 255.432829,5.3792095 C255.025736,5.3792095 254.664572,5.52142526 254.377867,5.80773536 C254.091859,6.09411505 253.949202,6.45508147 253.949202,6.86203841 C253.949202,7.26356833 254.093946,7.6198035 254.3723,7.91000993 Z M254.498255,22.6987792 L254.501735,22.7025364 L254.50591,22.706224 C254.761996,22.9498833 255.078623,23.0740785 255.432829,23.0740785 C255.782859,23.0740785 256.093223,22.9461957 256.340262,22.6987792 C256.595652,22.4437788 256.729262,22.1249066 256.729262,21.7643576 L256.729262,10.644254 C256.729262,10.2893408 256.610266,9.96991199 256.361835,9.71748598 C256.116883,9.45017044 255.794689,9.32117435 255.432829,9.32117435 C255.073752,9.32117435 254.756429,9.45351015 254.501735,9.70600574 C254.239386,9.9573881 254.109256,10.2806437 254.109256,10.644254 L254.109256,21.7643576 C254.109256,22.1249066 254.242866,22.4437788 254.498255,22.6987792 Z M273.28923,7.91321048 L273.292014,7.91634146 C273.578718,8.20272114 273.939186,8.3449369 274.346279,8.3449369 C274.753371,8.3449369 275.114536,8.20272114 275.40124,7.91634146 C275.690032,7.62745699 275.843127,7.26927366 275.843127,6.86203841 C275.843127,6.45069811 275.692816,6.08889676 275.397761,5.80439566 C275.111752,5.52031202 274.75198,5.3792095 274.346279,5.3792095 C273.939186,5.3792095 273.578718,5.52142526 273.292014,5.80773536 C273.006005,6.09411505 272.863349,6.45508147 272.863349,6.86203841 C272.863349,7.26356833 273.008093,7.6198035 273.285751,7.91000993 L273.28923,7.91321048 Z M273.411706,22.6987792 L273.415881,22.7025364 L273.41936,22.706224 C273.676142,22.9498833 273.992769,23.0740785 274.346279,23.0740785 C274.696309,23.0740785 275.007369,22.9461957 275.254408,22.6987792 C275.509798,22.4437788 275.643408,22.1249066 275.643408,21.7643576 L275.643408,10.644254 C275.643408,10.2893408 275.523716,9.96991199 275.275285,9.71748598 C275.031029,9.45017044 274.708139,9.32117435 274.346279,9.32117435 C273.987898,9.32117435 273.669879,9.45351015 273.415881,9.70600574 C273.152837,9.9573881 273.023402,10.2806437 273.023402,10.644254 L273.023402,21.7643576 C273.023402,22.1249066 273.157012,22.4437788 273.411706,22.6987792 Z M277.575184,22.6396386 L277.579359,22.643187 L277.582839,22.6465267 C277.845187,22.8838545 278.161815,23.0074932 278.515324,23.0074932 C278.867442,23.0074932 279.187549,22.8947086 279.436675,22.6454831 L279.440851,22.6415172 L279.445026,22.6374121 C279.686498,22.3825509 279.799231,22.0628438 279.799231,21.7110615 L279.799231,15.9978703 C279.799231,15.4347822 279.896655,14.9045345 280.090111,14.4039963 C280.284959,13.901162 280.554266,13.4738885 280.89525,13.1166792 C281.247367,12.7484768 281.65446,12.4657151 282.117223,12.2660982 L282.118615,12.265472 L282.120703,12.2647762 C282.588337,12.0585494 283.094941,11.9539749 283.643994,11.9539749 C284.193047,11.9539749 284.693389,12.058619 285.151281,12.263663 L285.152672,12.2642196 L285.153368,12.2647762 C285.625178,12.4726032 286.03575,12.7631576 286.387172,13.1383873 C286.721197,13.5042937 286.982153,13.9360897 287.167955,14.438437 L287.169346,14.4411505 L287.170042,14.4439336 C287.364194,14.9444718 287.461618,15.4747891 287.461618,16.0378076 L287.461618,21.7110615 C287.461618,22.0695927 287.583398,22.3919438 287.837396,22.6454831 L287.84505,22.6532757 L287.853401,22.6605813 C288.110878,22.8924125 288.424722,23.0074932 288.771969,23.0074932 C289.123391,23.0074932 289.443498,22.8947086 289.69332,22.6454831 C289.946622,22.3919438 290.068402,22.0695927 290.068402,21.7110615 L290.068402,15.9712223 C290.068402,15.0694324 289.908348,14.213981 289.58685,13.4084163 C289.275093,12.5972856 288.829727,11.8812668 288.250055,11.2641172 L288.247968,11.2617515 L288.24588,11.2593163 C287.656466,10.6512118 286.966844,10.1761388 286.180494,9.83507141 C285.388577,9.49156886 284.541686,9.32117435 283.643994,9.32117435 C282.745607,9.32117435 281.895236,9.49156886 281.094969,9.83437564 L281.094273,9.83472353 L281.093577,9.83507141 C280.30514,10.176765 279.615518,10.6571954 279.026104,11.2749712 C278.437385,11.8921904 277.982276,12.6085571 277.661474,13.4205924 C277.339279,14.2343671 277.179226,15.0900273 277.179226,15.9845115 L277.179226,21.7110615 C277.179226,22.0721671 277.313531,22.3908306 277.575184,22.6396386 Z M300.419687,22.7704437 C301.144103,22.5136343 301.803802,22.1489803 302.396695,21.67676 L302.396695,23.1466475 C302.396695,25.5098365 300.480925,27.4256443 298.117004,27.4256443 L296.818484,27.4256443 C295.17202,27.4256443 293.837314,26.0910843 293.837314,24.444749 C293.837314,23.733879 293.261121,23.1575711 292.549927,23.1575711 C291.838733,23.1575711 291.26254,23.733879 291.26254,24.444749 C291.26254,27.5128245 293.750328,30 296.818484,30 L298.117004,30 C301.902617,30 304.971469,26.9316463 304.971469,23.1466475 L304.971469,16.9035565 C304.990258,16.6928072 305,16.4796923 305,16.2642118 C305,15.3228325 304.820462,14.4286962 304.461385,13.585699 C304.112747,12.7386664 303.621452,11.9923815 302.988197,11.350045 L302.986806,11.3489317 L302.98611,11.3478185 C302.352159,10.7139704 301.60965,10.2181634 300.762758,9.86046709 C299.919346,9.50040517 299.024438,9.32117435 298.08221,9.32117435 C297.148333,9.32117435 296.258296,9.5006139 295.414884,9.86039751 C294.583998,10.2098837 293.847056,10.7061082 293.20545,11.3471227 C292.562453,11.98111 292.061416,12.7237073 291.703731,13.5715053 C291.343959,14.4231996 291.16442,15.321928 291.16442,16.2642118 C291.16442,17.1982159 291.343959,18.0886647 291.704427,18.931801 C292.062808,19.7706235 292.563149,20.5081416 293.20545,21.1413636 C293.84636,21.7818911 294.582606,22.282151 295.412796,22.6403344 L295.414884,22.6414476 L295.417668,22.6425608 C296.260384,22.9927428 297.149725,23.167312 298.08221,23.167312 C298.89222,23.167312 299.672307,23.035324 300.419687,22.7704437 Z M299.755117,12.2928158 L299.758596,12.2943465 L299.762076,12.295738 C300.298603,12.5151149 300.762062,12.8220199 301.156629,13.2167312 C301.552587,13.6124862 301.859472,14.072461 302.078676,14.599856 C302.279091,15.0816084 302.387649,15.5870867 302.40435,16.1189346 C302.399479,16.1649252 302.396695,16.2114723 302.396695,16.2585065 L302.396695,16.5604019 C302.365381,17.028378 302.259606,17.479099 302.079372,17.9143738 C301.860168,18.4325151 301.553283,18.8885935 301.156629,19.2851139 L301.155237,19.286575 L301.153845,19.2881057 C300.757887,19.69221 300.297907,20.0073251 299.771122,20.2345641 C299.247817,20.4514362 298.686238,20.5611594 298.08221,20.5611594 C297.487925,20.5611594 296.931217,20.4518537 296.407912,20.2349816 C295.890173,20.0080208 295.433673,19.6929754 295.037019,19.2881057 L295.035627,19.286575 L295.034235,19.2851139 C294.636885,18.8881065 294.325129,18.4311236 294.097574,17.9117299 C293.879762,17.3869092 293.771204,16.8388498 293.771204,16.2642118 C293.771204,15.6795547 293.880458,15.1266944 294.09827,14.6022912 C294.325825,14.0737829 294.638277,13.6129037 295.034235,13.2167312 C295.430889,12.819863 295.88739,12.5128189 296.40652,12.2939986 L296.407912,12.293442 L296.409303,12.2928158 C296.932609,12.0673857 297.488621,11.9539749 298.08221,11.9539749 C298.6758,11.9539749 299.231812,12.0673857 299.755117,12.2928158 Z M258.661734,22.6396386 L258.665213,22.643187 L258.668692,22.6465267 C258.931041,22.8838545 259.248364,23.0074932 259.601874,23.0074932 C259.953296,23.0074932 260.273403,22.8947086 260.523225,22.6454831 L260.526705,22.6415172 L260.53088,22.6374121 C260.772352,22.3825509 260.885085,22.0628438 260.885085,21.7110615 L260.885085,15.9978703 C260.885085,15.4347822 260.982509,14.9045345 261.176661,14.4039963 C261.371509,13.901162 261.64012,13.4738885 261.981104,13.1166792 C262.333917,12.7484768 262.740314,12.4657151 263.203773,12.2660982 L263.205165,12.265472 L263.206557,12.2647762 C263.674191,12.0585494 264.180795,11.9539749 264.729848,11.9539749 C265.278901,11.9539749 265.779938,12.058619 266.237134,12.263663 L266.238526,12.2642196 L266.239918,12.2647762 C266.711032,12.4726032 267.121604,12.7631576 267.473722,13.1383873 C267.80705,13.5042937 268.068007,13.9360897 268.254504,14.438437 L268.2552,14.4411505 L268.256592,14.4439336 C268.450048,14.9444718 268.548168,15.4747891 268.548168,16.0378076 L268.548168,21.7110615 C268.548168,22.0695927 268.669947,22.3919438 268.923249,22.6454831 L268.930904,22.6532757 L268.939255,22.6605813 C269.196732,22.8924125 269.510576,23.0074932 269.857823,23.0074932 C270.209244,23.0074932 270.530047,22.8947086 270.779174,22.6454831 C271.032476,22.3919438 271.154256,22.0695927 271.154256,21.7110615 L271.154256,15.9712223 C271.154256,15.0694324 270.994898,14.213981 270.672704,13.4084163 C270.360947,12.5972856 269.915581,11.8812668 269.336605,11.2641172 L269.334517,11.2617515 L269.331734,11.2593163 C268.743015,10.6512118 268.053394,10.1761388 267.267044,9.83507141 C266.474431,9.49156886 265.627539,9.32117435 264.729848,9.32117435 C263.832157,9.32117435 262.98109,9.49156886 262.180823,9.83437564 L262.180127,9.83472353 L262.179431,9.83507141 C261.391689,10.176765 260.701372,10.6571954 260.111957,11.2749712 C259.523239,11.8921904 259.06813,12.6085571 258.747327,13.4205924 C258.425133,14.2343671 258.265079,15.0900273 258.265079,15.9845115 L258.265079,21.7110615 C258.265079,22.0721671 258.399385,22.3908306 258.661734,22.6396386 Z M237.035725,22.6321938 L237.0399,22.635951 L237.043379,22.6396386 C237.300161,22.8832979 237.616788,23.0074932 237.970298,23.0074932 C238.318936,23.0074932 238.627909,22.8808627 238.874948,22.6358119 C239.133817,22.3880475 239.268123,22.0708451 239.279953,21.7121052 L239.280649,21.7056345 L239.307092,13.8818195 L239.307092,13.7019625 L239.301525,13.6901344 C239.329361,13.4791068 239.391294,13.2722538 239.489414,13.0682535 C239.610498,12.8353091 239.758722,12.6356922 239.93478,12.4666892 C240.119886,12.2968513 240.325868,12.1647938 240.554118,12.0689164 C240.787239,11.9745698 241.030103,11.9273269 241.286884,11.9273269 C241.568022,11.9273269 241.824107,11.9823624 242.060012,12.0896504 L242.064884,12.0918769 L242.069755,12.0939642 C242.307051,12.1945728 242.515817,12.341659 242.698834,12.5392582 C242.885332,12.7403362 243.025204,12.9655576 243.121236,13.2170791 L243.123324,13.2220887 L243.125412,13.2269591 C243.229099,13.4780631 243.280594,13.7392559 243.280594,14.0135291 L243.280594,21.6844135 C243.280594,22.038283 243.404462,22.3547896 243.648717,22.6111815 L243.652197,22.6150779 L243.655676,22.618835 C243.906194,22.869452 244.222822,22.9942039 244.577027,22.9942039 C244.926361,22.9942039 245.237422,22.8669473 245.490724,22.6263494 L245.494899,22.6226618 L245.498379,22.6189046 C245.753072,22.3639042 245.887378,22.045032 245.887378,21.6844135 L245.887378,13.7685478 L245.878332,13.7515014 C245.922172,13.2794203 246.121195,12.8616788 246.49419,12.4873536 C246.679295,12.3106971 246.883189,12.1766219 247.107264,12.0822057 C247.340385,11.9879286 247.583249,11.9406161 247.840727,11.9406161 C248.121168,11.9406161 248.383517,11.9956517 248.631252,12.1048878 L248.635427,12.1069752 L248.640298,12.1089929 C248.890121,12.2116888 249.103061,12.3566877 249.283991,12.5449635 C249.467705,12.7353267 249.611753,12.9599914 249.716832,13.2230627 L249.718223,13.2250109 L249.718919,13.2269591 C249.822606,13.4795242 249.873406,13.7363336 249.873406,14.0002399 L249.873406,21.6977723 C249.873406,22.0562339 249.995186,22.378585 250.249183,22.6321938 L250.252663,22.635951 L250.256838,22.6396386 C250.512924,22.8832979 250.829551,23.0074932 251.183757,23.0074932 C251.533091,23.0074932 251.844151,22.8803061 252.097453,22.6396386 C252.362585,22.3877692 252.493412,22.0630525 252.493412,21.6977723 L252.493412,13.8537799 C252.493412,13.2294638 252.371632,12.635066 252.125289,12.0746218 C251.881729,11.519048 251.54005,11.0263719 251.102338,10.5987506 L251.102338,10.598681 C250.672281,10.1780173 250.169157,9.85142205 249.59714,9.61875595 C249.031385,9.38497662 248.440579,9.26787822 247.826809,9.26787822 C247.113527,9.26787822 246.436431,9.42964517 245.801088,9.75199626 C245.326495,9.98946318 244.906877,10.2956724 244.544321,10.6695106 C244.169935,10.2957419 243.74127,9.98953276 243.259718,9.75199626 C242.632725,9.42929729 241.959805,9.26787822 241.247219,9.26787822 C240.625098,9.26787822 240.0329,9.38483747 239.473409,9.62021708 L239.472017,9.62077369 L239.471321,9.62126073 C238.92366,9.85573584 238.435845,10.1880365 238.008572,10.6153795 C237.579907,11.043975 237.247274,11.5374859 237.012761,12.0936163 C236.777552,12.6528081 236.660643,13.2451883 236.660643,13.8670691 L236.660643,21.6977723 C236.660643,22.0562339 236.782423,22.378585 237.035725,22.6321938 Z M205.194128,22.6516755 L205.196912,22.6529278 L205.199696,22.6541107 C205.999963,22.9971262 206.855205,23.167312 207.761247,23.167312 C208.650588,23.167312 209.485649,22.9967783 210.260865,22.6523017 C211.040256,22.3101211 211.721527,21.829134 212.301895,21.2110103 L212.301895,21.2108712 C212.873216,20.6017229 213.309536,19.8935664 213.612246,19.0902282 C213.924698,18.2859856 214.07988,17.4361003 214.07988,16.5439121 L214.07988,10.6042472 C214.07988,10.2475945 213.959492,9.92663499 213.708278,9.67365235 C213.459847,9.41426862 213.142524,9.28123704 212.782751,9.28123704 C212.424371,9.28123704 212.106351,9.41357284 211.852353,9.66613802 C211.589309,9.91752038 211.459874,10.240776 211.459874,10.6042472 L211.459874,16.5039052 C211.459874,17.0713767 211.369409,17.6002329 211.191263,18.0936047 C211.013116,18.5876722 210.76051,19.0158502 210.433444,19.3823828 L210.432053,19.3840527 L210.430661,19.3857225 C210.107074,19.7566385 209.716683,20.0447576 209.256007,20.2514018 L209.254616,20.2519584 L209.253224,20.2525151 C208.80577,20.4565154 208.310996,20.5611594 207.761247,20.5611594 C207.21289,20.5611594 206.702111,20.4567241 206.224038,20.2498015 C205.751532,20.0416962 205.341656,19.7506548 204.989538,19.3748685 L204.988147,19.3732682 L204.986755,19.3715983 C204.633245,19.0022827 204.354892,18.5718782 204.151693,18.0769061 C203.951278,17.5871523 203.850375,17.0684545 203.850375,16.517264 L203.850375,10.6042472 C203.850375,10.240776 203.720245,9.91752038 203.457896,9.66613802 C203.208074,9.41802578 202.892838,9.29452628 202.540024,9.29452628 C202.19069,9.29452628 201.87963,9.42178295 201.626328,9.66238085 L201.622848,9.66606844 L201.618673,9.66982561 C201.365371,9.92343444 201.243591,10.2457855 201.243591,10.6042472 L201.243591,16.517264 C201.243591,17.4117483 201.403645,18.267478 201.725839,19.0811832 L201.726535,19.0839663 L201.727927,19.0866798 C202.058472,19.8896005 202.523323,20.5964351 203.121088,21.2038439 C203.717461,21.818767 204.409171,22.3018414 205.194128,22.6516755 Z M190.693283,22.6403344 L190.696067,22.6414476 L190.69885,22.6425608 C191.540871,22.9927428 192.430211,23.167312 193.362697,23.167312 C194.304925,23.167312 195.199832,22.9880811 196.043245,22.6280888 C196.890136,22.2704621 197.632645,21.7745855 198.266596,21.1405982 C198.900547,20.5068892 199.392538,19.7688841 199.741872,18.9299224 C200.100948,18.0872731 200.280487,17.1974505 200.280487,16.2642118 C200.280487,15.3229021 200.101644,14.4288353 199.741872,13.5859077 C199.393234,12.7388055 198.901939,11.9924511 198.268684,11.350045 L198.267988,11.3489317 L198.266596,11.3478185 C197.632645,10.7139008 196.890136,10.2180938 196.043245,9.86039751 C195.199832,9.50040517 194.304925,9.32117435 193.362697,9.32117435 C192.429515,9.32117435 191.538783,9.5006139 190.696067,9.86032793 C189.86518,10.2097445 189.128238,10.7058994 188.486633,11.3468444 C187.843635,11.9808317 187.342598,12.7235681 186.984218,13.5715053 C186.625141,14.4231996 186.445603,15.321928 186.445603,16.2642118 C186.445603,17.1982159 186.625141,18.0886647 186.984914,18.931801 C187.343294,19.7707626 187.844331,20.5084199 188.486633,21.1416419 C189.127543,21.7820303 189.863789,22.2822206 190.693283,22.6403344 Z M195.035604,12.2928158 L195.039779,12.2943465 L195.043258,12.295738 C195.578394,12.5148366 196.041853,12.8212545 196.43642,13.2152005 C196.823331,13.6108164 197.126737,14.0712782 197.345941,14.599856 C197.564449,15.1250246 197.673703,15.6786502 197.673703,16.2642118 C197.673703,16.8396847 197.565145,17.3885791 197.346637,17.9140955 C197.127433,18.434185 196.823331,18.8913071 196.434332,19.2881753 C196.038373,19.69221 195.578394,20.0073251 195.051609,20.2345641 C194.528304,20.4514362 193.966725,20.5611594 193.362697,20.5611594 C192.769107,20.5611594 192.212399,20.4518537 191.688398,20.2349816 C191.17066,20.0080208 190.714856,19.6929754 190.318201,19.2881057 L190.316809,19.286575 L190.314722,19.2851139 C189.918068,18.8880369 189.606311,18.431054 189.378061,17.9116603 C189.160945,17.3868396 189.051691,16.8387802 189.051691,16.2642118 C189.051691,15.6795547 189.160945,15.1266944 189.378757,14.6022912 C189.607007,14.0737829 189.918763,13.6129037 190.314722,13.2167312 C190.712072,12.819863 191.168572,12.5128189 191.687006,12.2939986 L191.688398,12.293442 L191.68979,12.2928158 C192.213095,12.0673857 192.769803,11.9539749 193.362697,11.9539749 C193.956286,11.9539749 194.512298,12.0673857 195.035604,12.2928158 Z M186.401066,21.7377096 C186.401066,21.3854403 186.277895,21.070534 186.03016,20.8205432 C185.783121,20.5620639 185.461622,20.4412779 185.104633,20.4412779 L185.042699,20.4412779 C184.344727,20.4247186 183.847169,20.2052026 183.495748,19.8188405 C183.141542,19.4292083 182.938344,18.8621542 182.938344,18.0620862 L182.938344,6.03636599 C182.938344,5.67282521 182.808214,5.34956962 182.545865,5.09818726 C182.291171,4.84569166 181.973848,4.71328629 181.614771,4.71328629 C181.253607,4.71328629 180.934892,4.84763982 180.686461,5.10959792 L180.685765,5.11001538 C180.444293,5.3648766 180.33156,5.68465333 180.33156,6.03636599 L180.33156,18.0887343 C180.33156,18.8078144 180.445685,19.4760337 180.678806,20.0884521 L180.678806,20.0894957 L180.679502,20.0905394 C180.912624,20.6927299 181.250128,21.2175506 181.69271,21.6599919 C182.131814,22.0989543 182.640505,22.4363341 183.216002,22.6703917 C183.794282,22.9057713 184.421274,23.0207824 185.091411,23.0207824 L185.117855,23.0207824 C185.469277,23.0207824 185.790079,22.9079978 186.039206,22.6588419 C186.288333,22.4096164 186.401066,22.0891439 186.401066,21.7377096 Z M171.197377,22.6285758 L171.198073,22.6289237 L171.198769,22.6292716 C172.041485,22.9796623 172.935697,23.1539531 173.876533,23.1539531 C174.769353,23.1539531 175.627379,22.9986569 176.448523,22.6873686 L176.450611,22.6866032 L176.452699,22.6858379 C177.275234,22.3644608 177.978774,21.90713 178.556358,21.3112015 C178.838191,21.0285094 178.995461,20.6819454 178.995461,20.2861208 C178.995461,19.9106128 178.829841,19.5907665 178.553574,19.3385492 L178.551487,19.3366706 L178.549399,19.3348616 C178.429011,19.2278519 178.29053,19.1485339 178.138827,19.0960031 C177.99965,19.0397152 177.851427,19.0029784 177.699028,19.0029784 C177.497221,19.0029784 177.28776,19.0699117 177.088041,19.1595967 L177.042809,19.1799132 L177.003839,19.2101097 C176.351099,19.7151009 175.815964,20.045175 175.394258,20.2201617 L175.394258,20.2203704 C174.916881,20.419222 174.390096,20.5212221 173.809728,20.5212221 C173.207788,20.5212221 172.653168,20.4078113 172.141693,20.184399 C171.622563,19.9490194 171.175805,19.6302863 170.797244,19.2277823 C170.425641,18.8321665 170.134065,18.3757401 169.922517,17.8553028 C169.719318,17.326725 169.618415,16.7838838 169.618415,16.2242745 C169.618415,15.6753105 169.723493,15.1478459 169.933651,14.6389584 L169.933651,14.6378452 L169.934347,14.6368015 C170.145896,14.1155293 170.437471,13.6584072 170.809074,13.2622347 C171.196681,12.8590349 171.647615,12.5449635 172.165353,12.3184898 L172.168136,12.3173766 L172.170224,12.3162633 C172.683091,12.0839451 173.227969,11.9672642 173.809728,11.9672642 C174.230043,11.9672642 174.614171,12.016664 174.964897,12.1124022 L174.966289,12.1126805 L174.967681,12.1130284 C175.320494,12.2070967 175.670524,12.3652457 176.019162,12.5921368 L176.031688,12.6001382 L176.044214,12.6072351 C176.094318,12.6348572 176.192438,12.7018601 176.350404,12.8248725 L176.353187,12.827099 L176.737315,13.1150789 L176.745666,13.1207843 C177.053247,13.3285417 177.380313,13.4987971 177.685806,13.4987971 C178.000346,13.4987971 178.282875,13.3803072 178.523651,13.1776984 C178.826361,12.9352915 178.995461,12.606261 178.995461,12.2157243 C178.995461,11.8196214 178.838191,11.4705527 178.559837,11.1808333 L178.559142,11.1802071 L178.558446,11.1795809 C177.980165,10.5821216 177.275234,10.1281305 176.450611,9.81517234 C175.629467,9.49456068 174.770049,9.33446359 173.876533,9.33446359 C172.916213,9.33446359 172.011562,9.51814735 171.166758,9.8881588 C170.327521,10.2465509 169.589884,10.7475066 168.956629,11.3899823 L168.955933,11.3910955 L168.954541,11.3922088 C168.331028,12.0351019 167.844605,12.7815955 167.495967,13.6284194 C167.145937,14.4797658 166.971965,15.3817644 166.971965,16.3307972 C166.971965,17.263201 167.146632,18.1485706 167.497358,18.9830098 L167.49875,18.9856537 L167.500142,18.9882976 C167.858522,19.8097259 168.359559,20.5375032 169.001165,21.1694727 C169.63442,21.7932322 170.367187,22.279855 171.197377,22.6285758 Z" id="形状" fill="#3C53FF"></path>
            </g>
        </g>
    </g>
</svg>