<?xml version="1.0" encoding="UTF-8"?>
<svg width="21px" height="16px" viewBox="0 0 21 16" version="1.1" xmlns="http://www.w3.org/2000/svg" xmlns:xlink="http://www.w3.org/1999/xlink">
    <title>邮箱</title>
    <g id="页面-1" stroke="none" stroke-width="1" fill="none" fill-rule="evenodd" opacity="0.297991071">
        <g id="Hash-Space验证码邮件通知" transform="translate(-40, -474)" fill="#272636" fill-rule="nonzero">
            <path d="M60.982462,475.94666 C60.9256642,476.424497 60.717759,476.884373 60.3612683,477.248849 L52.0465796,485.69545 C51.1955869,486.559946 49.8043845,486.559946 48.9533631,485.69545 L40.6387317,477.24882 C40.2929633,476.898407 40.0740351,476.439485 40.017538,475.94666 C40.0065338,476.037809 40,476.128899 40,476.22223 L40,487.77777 C40,488.99996 40.9843043,490 42.1875466,490 L58.8125394,490 C60.0155525,490 61,488.99996 61,487.77777 L61,476.22223 C61,476.128899 60.9934662,476.037809 60.982462,475.94666 Z M52.0465796,484.07775 L60.7637819,475.22219 C60.4027347,474.497778 59.6612683,474 58.8125394,474 L42.1875179,474 C41.3388177,474 40.5970934,474.497808 40.2362754,475.22219 L48.9533917,484.07775 C49.8042699,484.942217 51.1955869,484.942217 52.0466083,484.07775 L52.0465796,484.07775 Z" id="邮箱"></path>
        </g>
    </g>
</svg>