<?xml version="1.0" encoding="UTF-8"?>
<svg width="228px" height="30px" viewBox="0 0 228 30" version="1.1" xmlns="http://www.w3.org/2000/svg" xmlns:xlink="http://www.w3.org/1999/xlink">
    <title>logo</title>
    <defs>
        <linearGradient x1="10.1710759%" y1="19.8290625%" x2="47.0197646%" y2="97.4624737%" id="linearGradient-1">
            <stop stop-color="#76E9FF" offset="0%"></stop>
            <stop stop-color="#3C53FF" offset="100%"></stop>
        </linearGradient>
    </defs>
    <g id="mail-1" stroke="none" stroke-width="1" fill="none" fill-rule="evenodd">
        <g id="mail" transform="translate(-40, -35)">
            <g id="logo" transform="translate(40, 35)">
                <path d="M4.26325559,7.18985174 C5.2200614,5.82553895 7.10372262,5.49414229 8.47048371,6.44960612 C9.83724479,7.40506994 10.1695482,9.28558554 9.21266931,10.6498254 L8.25045782,12.0217959 C7.86497421,12.5714009 7.99887443,13.329077 8.54952355,13.7140047 C9.10009962,14.0989324 9.85901362,13.9653965 10.2444972,13.4157185 L15.3473154,6.14008864 C16.3041213,4.77577585 18.1877825,4.44437919 19.5545436,5.39984302 C20.9213046,6.35530685 21.253608,8.23582244 20.2968022,9.6000623 L13.0002996,20.0035399 C12.614816,20.5532178 12.7486431,21.3108209 13.2992923,21.6957486 C13.8499414,22.0806764 14.6088554,21.9471404 14.994339,21.3975354 L19.5785769,14.8611301 C20.5354558,13.4968173 22.419117,13.1654207 23.7858781,14.1208845 C25.1526392,15.0763483 25.4849426,16.9568639 24.5280637,18.3211038 L17.2390852,28.7139335 C16.2822063,30.0782463 14.3985451,30.4096429 13.031784,29.4541791 C11.665096,28.4987153 11.3327926,26.6181997 12.2895984,25.2539598 L12.8006546,24.5253102 C13.1861382,23.9756322 13.052238,23.2180291 12.5015888,22.8331014 C11.9509397,22.4481737 11.1920988,22.5817096 10.8066152,23.1313146 L7.77285846,27.4569745 C6.8159796,28.8212144 4.93231838,29.1526111 3.5655573,28.1972202 C2.19879621,27.2417563 1.86649283,25.3612407 2.82337169,23.996928 L8.05081281,16.5435662 C8.43629642,15.9938883 8.3023962,15.2362851 7.75182013,14.8513574 C7.20117101,14.4664297 6.44225701,14.5999656 6.0567734,15.1495707 L5.49589731,15.9493277 C4.5390915,17.3135675 2.65543029,17.6450371 1.2886692,16.6895733 C-0.0780918861,15.7341094 -0.410395263,13.8535938 0.546410547,12.4892811 L4.26325559,7.18985174 Z M8.40371622,1.2860465 C9.36059508,-0.0781933525 11.2442563,-0.409662942 12.6110174,0.545800885 C13.9777054,1.50126471 14.3100088,3.38178031 13.353203,4.7460931 C12.3963972,6.11033295 10.512736,6.44172961 9.14597488,5.48633871 C7.77921379,4.53087489 7.44691041,2.65035929 8.40371622,1.2860465 Z" id="形状" fill="url(#linearGradient-1)"></path>
                <path d="M103.515167,5.62702185 C102.805853,5.62702185 102.109689,5.74203341 101.426674,5.97081671 C100.742197,6.20018345 100.123466,6.53128839 99.5741317,6.96464203 C99.0189535,7.40200686 98.570428,7.93272286 98.2300161,8.55401866 C97.8793772,9.19383884 97.7084408,9.91198649 97.7084408,10.6983972 C97.7084408,11.4670857 97.8771857,12.1570092 98.2300161,12.7535086 C98.5682365,13.3262327 99.0138401,13.8167639 99.5631743,14.224373 C100.103012,14.6254184 100.714439,14.9521475 101.393071,15.2062377 C102.050519,15.4525244 102.722577,15.6535941 103.407783,15.8094468 C103.900139,15.9677062 104.38592,16.1324564 104.865126,16.3036975 C105.329723,16.4695416 105.741723,16.6675482 106.10405,16.8961127 C106.451037,17.1153421 106.722782,17.3752668 106.92659,17.6743552 C107.109215,17.9431045 107.212946,18.2890873 107.212946,18.7353496 C107.212946,19.2412692 107.106293,19.6688613 106.906867,20.0300866 C106.695753,20.4115137 106.424008,20.7255528 106.090171,20.97658 C105.748298,21.2335145 105.360404,21.4298437 104.922835,21.5645465 C104.480154,21.7008538 104.038203,21.7681687 103.596252,21.7681687 C103.15284,21.7681687 102.734265,21.7160233 102.339065,21.6133371 C101.938753,21.5092651 101.56839,21.3642061 101.226517,21.1791083 C100.887567,20.9956878 100.587332,20.7727389 100.324353,20.5100429 C100.061374,20.2474198 99.8458769,19.9558432 99.6771319,19.6344381 L99.662522,19.6076726 L99.64499,19.5832408 C99.341103,19.1692138 98.9524783,18.865239 98.4674278,18.865239 C98.1430869,18.865239 97.8560013,18.9952743 97.6149371,19.2118052 C97.3424615,19.456925 97.2102414,19.7812474 97.2102414,20.1465568 C97.2102414,20.2437733 97.2197378,20.3414273 97.2372698,20.4391544 C97.2584542,20.5598545 97.3015536,20.677054 97.3563409,20.7890025 C97.5827952,21.306518 97.9027531,21.781588 98.3118318,22.2140664 C98.7209105,22.646472 99.197195,23.0234503 99.7384937,23.3460223 C100.283445,23.6702718 100.87807,23.9215177 101.520908,24.1008541 C102.168129,24.2813573 102.837995,24.3712078 103.529046,24.3712078 C104.355239,24.3712078 105.147098,24.2359215 105.902433,23.9639633 C106.654845,23.6928803 107.32252,23.3102863 107.900344,22.81465 C108.48182,22.3163881 108.944955,21.7163151 109.286828,21.0180045 C109.636006,20.307077 109.806943,19.5213227 109.806943,18.6681805 C109.806943,17.8684965 109.642581,17.1572043 109.294864,16.5507134 C108.962487,15.9695294 108.524189,15.4715593 107.983621,15.0584074 C107.45474,14.6537884 106.85281,14.3140777 106.181483,14.0375978 C105.529149,13.7687026 104.85636,13.5250415 104.163118,13.3066143 L104.154352,13.30377 L104.144855,13.3013633 C103.708018,13.1856225 103.248535,13.0587232 102.766406,12.9205197 C102.309115,12.7893905 101.893462,12.6193163 101.519447,12.4116829 C101.155659,12.2100298 100.86273,11.9686295 100.634084,11.6898887 C100.43831,11.4516244 100.329466,11.144222 100.329466,10.7387278 C100.329466,10.317116 100.42297,9.96770547 100.595367,9.6765665 C100.781644,9.36340249 101.021978,9.10398834 101.320021,8.89533388 C101.62683,8.68069912 101.973816,8.51565716 102.364633,8.40195835 C102.759101,8.28687386 103.152109,8.23006092 103.542195,8.23006092 C104.26831,8.23006092 104.897999,8.35214675 105.439297,8.58625399 C105.967447,8.81416212 106.483178,9.21965627 106.982108,9.8278975 L107.015711,9.86844692 L107.05808,9.89929656 C107.182995,9.99009516 107.316676,10.0636821 107.458393,10.1108682 C107.589882,10.1546266 107.725755,10.1788396 107.863819,10.1788396 C108.194004,10.1788396 108.489125,10.0590875 108.729459,9.83212748 C108.979289,9.5964887 109.106395,9.29360791 109.106395,8.95127166 C109.106395,8.75457782 109.060374,8.56277033 108.953721,8.39160221 C108.690742,7.93571301 108.363479,7.53401125 107.973394,7.18802847 C107.58623,6.84503585 107.155967,6.55805392 106.683335,6.32715563 C106.212894,6.09705958 105.708851,5.92326596 105.171935,5.8046808 C104.635019,5.6860227 104.082033,5.62702185 103.515167,5.62702185 Z M77.668699,5.694118 C77.3129466,5.694118 76.9995631,5.83071702 76.7475415,6.08240053 C76.4889453,6.34021021 76.3589167,6.66431381 76.3589167,7.02925855 L76.3589167,22.888164 C76.3589167,23.2453052 76.4874843,23.5624074 76.740967,23.8148932 C76.9937192,24.0673789 77.3114856,24.1963932 77.668699,24.1963932 C78.0266428,24.1963932 78.3444093,24.0673789 78.5971615,23.8148932 C78.8499137,23.5624074 78.9792118,23.2453052 78.9792118,22.888164 L78.9792118,17.0821587 C78.9792118,16.5111121 79.0931694,15.982584 79.3188932,15.4916881 C79.5497304,14.9903632 79.8565394,14.5580305 80.2400507,14.1914813 C80.6235619,13.825078 81.0706265,13.5368562 81.5856273,13.3270349 C82.0969757,13.1189639 82.6338915,13.0145273 83.2014881,13.0145273 C83.7676238,13.0145273 84.2680147,13.1226833 84.7099657,13.3314837 C85.1628743,13.5454621 85.545655,13.8340484 85.8619605,14.1978992 C86.179727,14.5635003 86.4280962,14.9969269 86.6056071,15.5032112 C86.7823876,16.0084744 86.8722388,16.5473586 86.8722388,17.1224893 L86.8722388,22.9150025 C86.8722388,23.2768841 86.9986149,23.5999667 87.2623245,23.8492435 C87.5136157,24.087216 87.8226162,24.2098124 88.1688721,24.2098124 C88.5246244,24.2098124 88.8460434,24.0927588 89.1002566,23.845597 C89.3573917,23.595445 89.4793848,23.2735293 89.4793848,22.9150025 L89.4793848,17.1224893 C89.4793848,16.2076478 89.3281718,15.3413781 89.0228238,14.5268162 C88.7182063,13.7150257 88.2879432,13.0019832 87.7305735,12.3922104 C87.1717428,11.7817813 86.5077204,11.3015333 85.7406979,10.9522686 C84.9649094,10.5988469 84.1160712,10.4249074 83.2014881,10.4249074 C82.6908703,10.4249074 82.1948624,10.4899615 81.7141949,10.6207261 C81.238641,10.7502508 80.7901154,10.9330879 80.3693488,11.1695289 C79.9507736,11.404803 79.5621489,11.6877737 79.202744,12.0177118 C79.1267723,12.0876522 79.0522615,12.1592701 78.9792118,12.2324924 L78.9792118,7.02925855 C78.9792118,6.67080464 78.8579491,6.34903482 78.6110409,6.08983945 C78.3590193,5.82510136 78.0346783,5.694118 77.668699,5.694118 Z M35.1030397,5.72117526 C34.7455342,5.72117526 34.4277677,5.84989777 34.1718014,6.09910164 C33.9101371,6.3537753 33.7792319,6.67780597 33.7792319,7.04289657 L33.7792319,22.8883099 C33.7792319,23.2488788 33.9132052,23.567002 34.1718014,23.8186856 C34.4277677,24.0678894 34.7455342,24.196539 35.1030397,24.196539 C35.4653666,24.196539 35.788904,24.0707337 36.0478654,23.8186856 C36.3063885,23.567002 36.4403618,23.2488788 36.4403618,22.8883099 L36.4403618,16.885319 L44.8447371,16.885319 L44.8447371,22.8883099 C44.8447371,23.245524 44.9739622,23.5625533 45.2268605,23.815039 C45.4827538,24.0705149 45.8062181,24.196539 46.168618,24.196539 C46.5307257,24.196539 46.8544822,24.0709525 47.1164387,23.8221862 C47.3805136,23.5713779 47.5193812,23.2522336 47.5193812,22.8883099 L47.5193812,7.04289657 C47.5193812,6.6745241 47.3837278,6.34939947 47.1164387,6.09560097 C46.8544822,5.84676175 46.5307257,5.72117526 46.168618,5.72117526 C45.8062181,5.72117526 45.4827538,5.84727227 45.2268605,6.10274817 C44.9709671,6.35815114 44.8447371,6.68108785 44.8447371,7.04289657 L44.8447371,14.228603 L36.4403618,14.228603 L36.4403618,7.04289657 C36.4403618,6.67780597 36.3094566,6.3537753 36.0478654,6.09910164 C35.788904,5.84705348 35.4653666,5.72117526 35.1030397,5.72117526 Z M55.7530393,10.411707 C54.7938959,10.411707 53.8895398,10.5946899 53.0450845,10.9633541 C52.209103,11.3285905 51.4785323,11.8285298 50.8573171,12.463026 C50.2371977,13.0964283 49.747326,13.8358717 49.3871906,14.6778555 C49.0234028,15.528591 48.8428968,16.4390566 48.8428968,17.4049496 C48.8428968,18.3624554 49.0236219,19.2664303 49.3875559,20.112644 C49.7478373,20.950325 50.2380012,21.6853925 50.8584129,22.314346 C51.479555,22.9440288 52.2097605,23.4412697 53.0450845,23.8062874 C53.8895398,24.1748786 54.7938959,24.3578615 55.7530393,24.3578615 C56.747977,24.3578615 57.6735176,24.1707216 58.5245473,23.7916283 C59.0753425,23.546071 59.5815774,23.2399812 60.0425214,22.8735779 L60.0432519,22.9317036 C60.0432519,23.2793638 60.1520961,23.5959555 60.3792808,23.8557343 C60.624728,24.1354232 60.956374,24.263781 61.3267363,24.263781 C61.6919851,24.263781 62.016326,24.1333811 62.2749222,23.8755714 C62.5327879,23.6177617 62.6635469,23.2935852 62.6635469,22.9287134 L62.6635469,17.4049496 C62.6635469,16.439786 62.4853055,15.5280076 62.1273617,14.6736985 C61.7716093,13.8261719 61.2829064,13.0853429 60.6612529,12.4552225 C60.0403299,11.8255396 59.3105628,11.3282988 58.4748735,10.9633541 C57.6304182,10.5944711 56.7216791,10.411707 55.7530393,10.411707 Z M54.0670507,13.3831915 C54.5820515,13.156669 55.1423432,13.0415116 55.7530393,13.0415116 C56.3739623,13.0415116 56.9415589,13.1569607 57.4609427,13.383702 C57.9890925,13.6142356 58.4398096,13.9249929 58.8189379,14.3152446 C59.1980661,14.7060067 59.4975702,15.1675845 59.7167195,15.704135 C59.9336773,16.2357261 60.0432519,16.8014488 60.0432519,17.4048766 C60.0432519,17.9986047 59.9336773,18.557326 59.7167195,19.0844684 C59.4975702,19.6169347 59.1980661,20.0796065 58.8174769,20.4759114 C58.4383486,20.8701013 57.9876315,21.1824631 57.4609427,21.412632 C56.9415589,21.6393733 56.3739623,21.7547495 55.7530393,21.7547495 C55.1423432,21.7547495 54.5820515,21.639665 54.0670507,21.4131426 C53.5440144,21.1829006 53.0918364,20.8700284 52.7083251,20.4743069 C52.3229876,20.0776374 52.0187353,19.614601 51.7954222,19.0819888 C51.5745928,18.5554298 51.4635571,17.9975836 51.4635571,17.4048766 C51.4635571,16.8024698 51.574885,16.2375494 51.7957874,15.7066146 C52.0191006,15.1699183 52.3229876,14.7079759 52.7068641,14.3167761 C53.0911059,13.9249929 53.5432839,13.613798 54.0670507,13.3831915 Z M68.1378963,10.411707 C67.5827181,10.411707 67.0567598,10.5159248 66.5636738,10.726913 C66.0793539,10.9343277 65.6520128,11.217736 65.286764,11.5774297 C64.9215152,11.9371964 64.6344296,12.3568391 64.4255073,12.8332947 C64.2129324,13.3174081 64.1084713,13.8348507 64.1084713,14.381028 C64.1084713,14.9338419 64.2100104,15.4597445 64.4152803,15.9549433 C64.6183586,16.4438701 64.8996002,16.8767861 65.2590051,17.2505555 C65.6198709,17.6262939 66.0479425,17.9227568 66.5388369,18.1404547 C67.0377668,18.3619449 67.5724911,18.4712679 68.1378963,18.4712679 L70.7830282,18.4712679 C71.010213,18.4794361 71.2286318,18.5194021 71.4397456,18.5907282 C71.6457459,18.6605957 71.8225264,18.7597084 71.9752004,18.8868994 C72.1234914,19.0108814 72.2440235,19.1631605 72.3367967,19.3478937 C72.4200734,19.5154153 72.4682863,19.7199127 72.4682863,19.9719609 C72.4682863,20.2321773 72.4186124,20.4492188 72.3280307,20.6322017 C72.2294136,20.8340006 72.100846,21.0050229 71.942328,21.1486233 C71.782349,21.293901 71.6033771,21.4035157 71.4046817,21.4792906 C71.2023339,21.5565241 71.0021775,21.5935729 70.8034822,21.5935729 L65.109253,21.5935729 C64.7659192,21.5935729 64.4576491,21.7123768 64.2173154,21.9590281 C63.9747902,22.208232 63.8659461,22.5267199 63.8659461,22.8749636 C63.8659461,23.2284582 63.9725987,23.5521971 64.2100104,23.8097151 C64.4481527,24.0679624 64.7586142,24.1966119 65.109253,24.1966119 L70.9649221,24.1966119 C71.5478593,24.1966119 72.096463,24.0853198 72.6056198,23.8589433 C73.1052802,23.636432 73.5406568,23.3326031 73.9066361,22.9471649 C74.270424,22.5643521 74.555318,22.1204965 74.7620489,21.6190256 C74.9717017,21.1111369 75.0754324,20.5744406 75.0754324,20.0122915 C75.0754324,19.4501424 74.9717017,18.9151235 74.7613184,18.4108814 C74.553857,17.9116714 74.2623885,17.4693473 73.8898347,17.0868263 C73.5150894,16.7030654 73.0760603,16.4020808 72.5756694,16.184383 C72.0672431,15.9633303 71.5201003,15.8548096 70.9378937,15.8548096 L68.1247473,15.8548096 C67.9282434,15.8548096 67.750002,15.8167398 67.58564,15.7427153 C67.4095901,15.6639502 67.2576466,15.5597324 67.127618,15.4299159 C66.9990504,15.301558 66.8982418,15.1524879 66.8244615,14.9797153 C66.7528727,14.8135064 66.7156174,14.633222 66.7156174,14.4347778 C66.7156174,14.2584316 66.7514117,14.086753 66.8244615,13.9166788 C66.8997028,13.7415724 66.9997809,13.5912625 67.1254265,13.46254 C67.2510721,13.3336716 67.4008241,13.2272658 67.5776046,13.1441249 C67.7397751,13.0682771 67.920208,13.0281653 68.1247473,13.0281653 L73.0519539,13.0281653 C73.4025928,13.0281653 73.7181677,12.9084862 73.9723809,12.6675964 C74.244126,12.4102972 74.3624667,12.0686173 74.3624667,11.6930247 C74.3624667,11.3230478 74.2412041,10.9857438 73.9599625,10.7405511 C73.7035578,10.5179669 73.3930963,10.411707 73.0519539,10.411707 L68.1378963,10.411707 Z M118.094438,10.411707 C117.134565,10.411707 116.226556,10.5946899 115.374796,10.9626248 C114.53034,11.3271319 113.790346,11.8234976 113.155544,12.4519406 C112.520011,13.0815505 112.020351,13.8221608 111.654371,14.6701249 C111.2862,15.5253091 111.103576,16.4383273 111.103576,17.4049496 L111.103576,27.5250188 C111.103576,27.8899635 111.233605,28.214213 111.492201,28.4718768 C111.747144,28.7267693 112.066372,28.8603052 112.427238,28.8603052 C112.793217,28.8603052 113.117558,28.7288113 113.363005,28.4564155 C113.597495,28.1962721 113.710722,27.8771277 113.710722,27.5250188 L113.710722,22.8185153 C114.181163,23.1993589 114.700546,23.5170446 115.268874,23.7712077 C116.145471,24.1633556 117.089274,24.3578615 118.094438,24.3578615 C119.054312,24.3578615 119.962321,24.1748786 120.814081,23.8069437 C121.658536,23.4423636 122.39707,22.9457062 123.027489,22.3166069 C123.657908,21.6874346 124.153186,20.9516377 124.514052,20.112644 C124.87784,19.2664303 125.059003,18.3624554 125.059003,17.4049496 C125.059003,16.4390566 124.87857,15.5266219 124.514782,14.6718752 C124.153916,13.8238382 123.658639,13.0829362 123.027489,12.4530346 C122.39707,11.8239352 121.658536,11.3272048 120.814081,10.9626248 C119.962321,10.5946899 119.054312,10.411707 118.094438,10.411707 Z M116.385074,13.3845771 C116.914685,13.156669 117.483012,13.0415116 118.094438,13.0415116 C118.715361,13.0415116 119.28588,13.1569607 119.809647,13.3841396 C120.34291,13.6153296 120.804585,13.9273267 121.198323,14.3198392 C121.58987,14.7113307 121.900331,15.1731272 122.126785,15.7090942 C122.351779,16.2394456 122.465006,16.8034909 122.465006,17.4048766 C122.465006,17.9964897 122.351779,18.5535336 122.127516,19.0795091 C121.900331,19.611392 121.58987,20.0742825 121.196131,20.4712438 C120.803854,20.8677675 120.34218,21.1813691 119.809647,21.4121945 C119.28588,21.6393733 118.715361,21.7547495 118.094438,21.7547495 C117.483012,21.7547495 116.914685,21.639665 116.385074,21.4117569 C115.848158,21.1807857 115.385023,20.867257 114.992745,20.4712438 C114.598277,20.0736991 114.285624,19.6100063 114.053325,19.0770295 C113.82541,18.5516374 113.710722,17.9955416 113.710722,17.4048766 C113.710722,16.8045119 113.82541,16.2413418 114.054056,15.711501 C114.285624,15.1745129 114.598277,14.7118412 114.991284,14.3198392 C115.383562,13.9278372 115.846697,13.615913 116.385074,13.3845771 Z M132.404157,10.411707 C131.444283,10.411707 130.540657,10.5946899 129.696202,10.9633541 C128.859782,11.3285905 128.129285,11.8285298 127.508362,12.463026 C126.888169,13.0964283 126.398736,13.8358717 126.0386,14.6778555 C125.674812,15.528591 125.493649,16.4390566 125.493649,17.4049496 C125.493649,18.3624554 125.674812,19.2664303 126.0386,20.112644 C126.398736,20.950325 126.8889,21.6853925 127.509092,22.314346 C128.130746,22.9440288 128.861243,23.4412697 129.696202,23.8062874 C130.540657,24.1748786 131.444283,24.3578615 132.404157,24.3578615 C133.399095,24.3578615 134.324635,24.1707216 135.175665,23.7916283 C135.72646,23.546071 136.232695,23.2399812 136.693639,22.8735779 L136.694369,22.9317036 C136.6951,23.2793638 136.803214,23.5959555 137.030398,23.8557343 C137.275845,24.1354232 137.607491,24.263781 137.977123,24.263781 C138.343103,24.263781 138.667443,24.1333811 138.92604,23.8755714 C139.183905,23.6177617 139.314664,23.2935852 139.314664,22.9287134 L139.314664,17.4049496 C139.314664,16.439786 139.137153,15.5280076 138.778479,14.6736985 C138.422727,13.8261719 137.934024,13.0853429 137.313101,12.4552225 C136.691447,11.8255396 135.96168,11.3282988 135.125991,10.9633541 C134.281536,10.5944711 133.372797,10.411707 132.404157,10.411707 Z M130.718168,13.3831915 C131.232439,13.156669 131.793461,13.0415116 132.404157,13.0415116 C133.02508,13.0415116 133.592676,13.1569607 134.11206,13.383702 C134.64021,13.6142356 135.090927,13.9249929 135.469325,14.3152446 C135.849184,14.7060067 136.148688,15.1675845 136.367837,15.704135 C136.584795,16.2357261 136.694369,16.8014488 136.694369,17.4048766 C136.694369,17.9986047 136.584795,18.557326 136.367837,19.0844684 C136.148688,19.6169347 135.849184,20.0796065 135.467864,20.4759114 C135.089466,20.8701013 134.638749,21.1824631 134.11206,21.412632 C133.592676,21.6393733 133.02508,21.7547495 132.404157,21.7547495 C131.793461,21.7547495 131.232439,21.639665 130.718168,21.4131426 C130.195132,21.1829006 129.743684,20.8700284 129.359443,20.4743069 C128.97374,20.0776374 128.669853,19.614601 128.446321,19.0819888 C128.22571,18.5554298 128.114675,17.9975836 128.114675,17.4048766 C128.114675,16.8024698 128.22571,16.2375494 128.447051,15.7066146 C128.669853,15.1699183 128.97374,14.7079759 129.357982,14.3167761 C129.742223,13.9249929 130.194401,13.613798 130.718168,13.3831915 Z M147.319458,10.4251262 C146.334016,10.4251262 145.411398,10.6099324 144.558176,10.9835558 C143.71226,11.353314 142.97738,11.8579208 142.355726,12.497741 C141.734803,13.1363214 141.246831,13.8833495 140.891809,14.7348143 C140.533865,15.5932075 140.355624,16.5068821 140.355624,17.4721186 C140.355624,18.4303538 140.538978,19.3311197 140.90861,20.1697487 C141.273859,20.9994072 141.772058,21.7257961 142.402478,22.3456332 C143.032897,22.9653975 143.769239,23.4527927 144.609311,23.8081106 C145.456689,24.1664916 146.361775,24.3443693 147.319458,24.3443693 C148.212126,24.3443693 149.074113,24.1877144 149.901036,23.8744045 C150.733804,23.5591985 151.448961,23.0978395 152.039933,22.488796 C152.322636,22.2057523 152.480423,21.8592591 152.480423,21.4636835 C152.480423,21.2683753 152.437324,21.079558 152.34382,20.9066395 C152.262005,20.7565483 152.156813,20.6247627 152.026784,20.5146375 C151.904791,20.4110761 151.769649,20.3286645 151.621358,20.2709035 C151.481833,20.2162055 151.334273,20.1823657 151.18306,20.1823657 C151.068371,20.1823657 150.955875,20.2003066 150.8463,20.232542 C150.746222,20.2617871 150.649796,20.2998569 150.556293,20.3463866 L150.521229,20.3640358 L150.489817,20.3882488 C150.183739,20.6238876 149.895192,20.8270722 149.624908,20.9985321 C149.359007,21.1672935 149.100411,21.3043301 148.84912,21.4111734 C148.602211,21.5162664 148.35019,21.5926248 148.093055,21.6408319 C147.832997,21.6894766 147.553217,21.7144918 147.252252,21.7144918 C146.624024,21.7144918 146.056427,21.5950315 145.544348,21.3615806 C145.020581,21.1228788 144.573517,20.8040262 144.198041,20.4050958 C143.821104,20.0042692 143.527444,19.5418162 143.317791,19.0146009 C143.108139,18.4899381 143.002947,17.9409166 143.002947,17.3646189 C143.002947,16.7990421 143.1096,16.2605955 143.322174,15.7460701 C143.536941,15.227023 143.832792,14.7701127 144.21046,14.3726409 C144.587396,13.9759714 145.029347,13.6585045 145.540696,13.4198026 C146.043278,13.1853307 146.582385,13.063172 147.163862,13.0549308 L147.165323,13.0549308 L147.166053,13.0549308 C147.599238,13.0466167 148.001012,13.0924171 148.374296,13.1896336 C148.741006,13.2851727 149.115751,13.4503605 149.497802,13.6910315 L149.499993,13.6921984 L149.502185,13.6933653 C149.602993,13.755721 149.711837,13.8316417 149.827256,13.9220757 C149.957285,14.0243973 150.088044,14.1221973 150.218803,14.2154755 C150.36125,14.3167032 150.504427,14.4031259 150.649066,14.4728476 C150.812697,14.551248 150.987286,14.6005491 151.169911,14.6005491 C151.309436,14.6005491 151.4475,14.5700641 151.57972,14.5241907 C151.732394,14.4712431 151.871919,14.3905819 151.999025,14.2879685 C152.132707,14.1798854 152.243742,14.049923 152.330671,13.9009987 C152.435133,13.7221729 152.480423,13.5236558 152.480423,13.3192313 C152.480423,12.9299278 152.320444,12.583945 152.048699,12.2900347 L152.045777,12.2864611 L152.042125,12.2829604 C151.450422,11.672823 150.734534,11.2107347 149.901036,10.895091 C149.074113,10.5817082 148.212126,10.4251262 147.319458,10.4251262 Z M159.987017,10.411707 C159.027143,10.411707 158.119135,10.5946899 157.267374,10.9626248 C156.422919,11.3273507 155.681464,11.8264148 155.047392,12.4597442 C154.41332,13.0930735 153.912929,13.8329545 153.54768,14.6761052 C153.17951,15.5266948 152.996155,16.4332222 152.996155,17.3915303 C152.996155,18.3497655 153.17951,19.2562929 153.54768,20.1069555 C153.912929,20.950325 154.41332,21.6884556 155.048853,22.3176279 C155.682925,22.9461438 156.42365,23.4425095 157.267374,23.8069437 C158.119135,24.1748786 159.027143,24.3578615 159.987017,24.3578615 C160.385138,24.3578615 160.751118,24.3394101 161.083494,24.3014862 C161.412949,24.263854 161.72268,24.2094477 162.011226,24.1373923 C162.302695,24.0646076 162.579553,23.9694331 162.841071,23.8512126 C163.091632,23.7379514 163.339271,23.6109063 163.583988,23.4700773 L163.584718,23.4692021 L163.58691,23.4683269 C163.791449,23.3479185 163.962385,23.1861584 164.07196,22.9749514 C164.166925,22.7923332 164.21879,22.5962957 164.21879,22.391069 C164.21879,22.0517958 164.094605,21.745852 163.873995,21.4835206 C163.632931,21.1971221 163.310781,21.0425822 162.935306,21.0425822 C162.816965,21.0425822 162.697894,21.0589186 162.578092,21.0872157 C162.434915,21.1212743 162.299773,21.182536 162.173397,21.2619574 C161.996616,21.3624558 161.827871,21.4495349 161.667162,21.5235595 C161.513027,21.5946668 161.355239,21.6516256 161.193799,21.6948735 C161.032359,21.7380484 160.856309,21.7703566 160.664188,21.7907043 C160.470607,21.8112707 160.245613,21.8220644 159.987017,21.8220644 C159.453023,21.8220644 158.94971,21.727984 158.474157,21.5412087 C157.992028,21.3520267 157.563956,21.0920291 157.18775,20.7612159 C156.811544,20.4304756 156.503274,20.0429224 156.260749,19.5964412 C156.093465,19.2879448 155.96855,18.9624555 155.886003,18.6190982 L165.708275,18.6190982 C166.064027,18.6190982 166.385446,18.5018258 166.633815,18.2470792 C166.873418,18.001376 166.991759,17.6939006 166.991759,17.3511997 L166.991759,17.3491576 L166.991759,17.3471156 C166.982263,16.3977779 166.791603,15.4986165 166.419049,14.6533508 C166.048687,13.8153053 165.546835,13.0803836 164.912763,12.4519406 C164.27796,11.8234976 163.537236,11.3271319 162.693511,10.9626248 C161.841751,10.5949087 160.938856,10.411707 159.987017,10.411707 Z M158.424483,13.2468112 C158.915377,13.0481483 159.444257,12.9474311 160.014046,12.9474311 C160.585295,12.9474311 161.114906,13.0462521 161.60653,13.2411956 C162.107652,13.4395668 162.548872,13.7086807 162.934575,14.0481727 C163.318817,14.3868624 163.633661,14.7869597 163.88057,15.2507983 C164.055159,15.5791319 164.184457,15.9278861 164.268464,16.2981547 L155.82245,16.2981547 C155.900613,15.940503 156.023337,15.598969 156.190621,15.2726775 C156.429494,14.808766 156.736303,14.4066995 157.112509,14.0637798 C157.487985,13.7216624 157.924092,13.4490478 158.424483,13.2468112 Z" id="形状" fill="#232941"></path>
                <path d="M227.30968,23.4414885 C227.477694,23.2739669 227.561701,23.0553209 227.561701,22.7854048 C227.561701,22.5248237 227.472581,22.3061049 227.2958,22.1293211 C227.127786,21.9524644 226.908637,21.8640725 226.638352,21.8640725 L226.568955,21.8640725 C225.73911,21.8454752 225.091158,21.5802266 224.625101,21.0683996 C224.159043,20.5565726 223.926015,19.8446241 223.926015,18.9326269 L223.926015,6.3273015 C223.926015,6.05745827 223.832511,5.83407183 223.646234,5.65728805 C223.459957,5.47109622 223.236425,5.37803677 222.975637,5.37803677 C222.714119,5.37803677 222.49497,5.47109622 222.318189,5.65728805 C222.150175,5.83407183 222.066168,6.05745827 222.066168,6.3273015 L222.066168,18.9605593 C222.066168,19.6678403 222.177934,20.3145889 222.402197,20.900878 C222.625729,21.4779049 222.947148,21.9757292 223.366453,22.3945697 C223.78649,22.8133372 224.27081,23.1343777 224.820874,23.3577642 C225.370939,23.5810777 225.972139,23.6927344 226.624473,23.6927344 L226.638352,23.6927344 L226.652232,23.6927344 C226.923246,23.6927344 227.141665,23.6090101 227.30968,23.4414885 Z M210.335106,23.3298317 C211.164951,23.6741371 212.041549,23.8463263 212.964167,23.8463263 C213.896282,23.8463263 214.777262,23.6694695 215.606377,23.3158291 C216.445719,22.9621886 217.177677,22.4736265 217.801522,21.8501427 C218.426098,21.2265861 218.911148,20.5007078 219.255943,19.6724349 C219.610235,18.844235 219.787015,17.9694324 219.787015,17.0481001 C219.787015,16.1175056 219.610235,15.2380355 219.255943,14.4097626 C218.911148,13.5722276 218.426098,12.8370142 217.801522,12.2041953 C217.177677,11.5807116 216.445719,11.0920766 215.606377,10.7384361 C214.777262,10.3847956 213.896282,10.2080118 212.964167,10.2080118 C212.041549,10.2080118 211.164951,10.3847956 210.335106,10.7384361 C209.514757,11.0828144 208.787912,11.5713765 208.15384,12.2041953 C207.520499,12.827752 207.025952,13.5582249 206.672391,14.3958329 C206.3181,15.2333679 206.140589,16.1175056 206.140589,17.0481001 C206.140589,17.9694324 206.3181,18.844235 206.672391,19.6724349 C207.025952,20.5007078 207.520499,21.2265861 208.15384,21.8501427 C208.787912,22.4829616 209.514757,22.9761912 210.335106,23.3298317 Z M214.907291,21.6128265 C214.301708,21.8640725 213.653757,21.9897319 212.964167,21.9897319 C212.283343,21.9897319 211.640505,21.8640725 211.034192,21.6128265 C210.438106,21.3522455 209.911417,20.9892699 209.454856,20.5239726 C208.997565,20.0680105 208.638891,19.5421809 208.378103,18.9465566 C208.126081,18.3416702 208.000436,17.7088514 208.000436,17.0481001 C208.000436,16.3780867 208.126081,15.7406003 208.378103,15.1356409 C208.638891,14.5307545 208.997565,14.0003302 209.454856,13.5442952 C209.911417,13.0882601 210.438106,12.7346925 211.034192,12.4833737 C211.640505,12.2227926 212.283343,12.0925386 212.964167,12.0925386 C213.64426,12.0925386 214.287829,12.2227926 214.893411,12.4833737 C215.50849,12.7346925 216.044676,13.0882601 216.501237,13.5442952 C216.949032,14.0003302 217.29821,14.5307545 217.550231,15.1356409 C217.801522,15.7406003 217.927899,16.3780867 217.927899,17.0481001 C217.927899,17.7088514 217.801522,18.3416702 217.550231,18.9465566 C217.29821,19.5421809 216.949032,20.0680105 216.501237,20.5239726 C216.044676,20.9892699 215.513604,21.3522455 214.907291,21.6128265 Z M198.059093,23.8463263 C197.136475,23.8463263 196.259878,23.6741371 195.430032,23.3298317 C194.610414,22.9761912 193.882838,22.4829616 193.249497,21.8501427 C192.615425,21.2265861 192.121608,20.5007078 191.767317,19.6724349 C191.413026,18.844235 191.235515,17.9694324 191.235515,17.0481001 C191.235515,16.1175056 191.413026,15.2333679 191.767317,14.3958329 C192.121608,13.5582249 192.615425,12.827752 193.249497,12.2041953 C193.882838,11.5713765 194.610414,11.0828144 195.430032,10.7384361 C196.259878,10.3847956 197.136475,10.2080118 198.059093,10.2080118 C198.991208,10.2080118 199.872188,10.3847956 200.701303,10.7384361 C201.540645,11.0920766 202.272604,11.5807116 202.897179,12.2041953 C203.521755,12.8370142 204.006074,13.5722276 204.350869,14.4097626 C204.705161,15.2380355 204.882672,16.1175056 204.882672,17.0481001 C204.882672,17.9694324 204.705161,18.844235 204.350869,19.6724349 C204.006074,20.5007078 203.521755,21.2265861 202.897179,21.8501427 C202.272604,22.4736265 201.540645,22.9621886 200.701303,23.3158291 C199.872188,23.6694695 198.991208,23.8463263 198.059093,23.8463263 Z M198.059093,21.9897319 C198.748683,21.9897319 199.396634,21.8640725 200.002217,21.6128265 C200.60853,21.3522455 201.139602,20.9892699 201.596163,20.5239726 C202.043958,20.0680105 202.393136,19.5421809 202.645157,18.9465566 C202.897179,18.3416702 203.022825,17.7088514 203.022825,17.0481001 C203.022825,16.3780867 202.897179,15.7406003 202.645157,15.1356409 C202.393136,14.5307545 202.043958,14.0003302 201.596163,13.5442952 C201.139602,13.0882601 200.603416,12.7346925 199.988337,12.4833737 C199.382755,12.2227926 198.739186,12.0925386 198.059093,12.0925386 C197.378269,12.0925386 196.735431,12.2227926 196.129849,12.4833737 C195.533032,12.7346925 195.006344,13.0882601 194.549783,13.5442952 C194.092491,14.0003302 193.733817,14.5307545 193.473029,15.1356409 C193.221007,15.7406003 193.095362,16.3780867 193.095362,17.0481001 C193.095362,17.7088514 193.221007,18.3416702 193.473029,18.9465566 C193.733817,19.5421809 194.092491,20.0680105 194.549783,20.5239726 C195.006344,20.9892699 195.533032,21.3522455 196.129849,21.6128265 C196.735431,21.8640725 197.378269,21.9897319 198.059093,21.9897319 Z M176.624101,28.2435311 C176.811108,28.42965 177.034641,28.5227094 177.295428,28.5227094 C177.565712,28.5227094 177.784862,28.42965 177.952876,28.2435311 C178.12016,28.0666744 178.204167,27.8386933 178.204167,27.559515 L178.204167,21.6965509 C178.838239,22.3758994 179.584077,22.9063966 180.441682,23.2879696 C181.299286,23.6602074 182.212408,23.8463263 183.181778,23.8463263 C184.105127,23.8463263 184.980994,23.6694695 185.810839,23.3158291 C186.649451,22.9621886 187.381409,22.4736265 188.005985,21.8501427 C188.63056,21.2265861 189.11488,20.5007078 189.459675,19.6724349 C189.813966,18.844235 189.991477,17.9694324 189.991477,17.0481001 C189.991477,16.1175056 189.813966,15.2333679 189.459675,14.3958329 C189.11488,13.5582249 188.63056,12.827752 188.005985,12.2041953 C187.381409,11.5807116 186.649451,11.0920766 185.810839,10.7384361 C184.980994,10.3847956 184.105127,10.2080118 183.181778,10.2080118 C182.25916,10.2080118 181.37818,10.3847956 180.539568,10.7384361 C179.709723,11.0920766 178.982878,11.5807116 178.358302,12.2041953 C177.72423,12.827752 177.230414,13.5582249 176.876123,14.3958329 C176.521831,15.2333679 176.345051,16.1175056 176.345051,17.0481001 L176.345051,27.559515 C176.345051,27.8293582 176.437824,28.0574122 176.624101,28.2435311 Z M185.111753,21.6128265 C184.514936,21.8640725 183.872099,21.9897319 183.181778,21.9897319 C182.501685,21.9897319 181.858117,21.8640725 181.252534,21.6128265 C180.646221,21.3522455 180.115149,20.9892699 179.658588,20.5239726 C179.202027,20.0680105 178.842622,19.5421809 178.581835,18.9465566 C178.329813,18.3416702 178.204167,17.7088514 178.204167,17.0481001 C178.204167,16.3780867 178.329813,15.7406003 178.581835,15.1356409 C178.842622,14.5307545 179.202027,14.0003302 179.658588,13.5442952 C180.115149,13.0882601 180.646221,12.7346925 181.252534,12.4833737 C181.858117,12.2227926 182.501685,12.0925386 183.181778,12.0925386 C183.862602,12.0925386 184.50544,12.2227926 185.111753,12.4833737 C185.717336,12.7346925 186.248407,13.0882601 186.705699,13.5442952 C187.16226,14.0003302 187.516551,14.5307545 187.767842,15.1356409 C188.019864,15.7406003 188.14551,16.3780867 188.14551,17.0481001 C188.14551,17.7088514 188.019864,18.3416702 187.767842,18.9465566 C187.516551,19.5421809 187.16226,20.0680105 186.705699,20.5239726 C186.248407,20.9892699 185.717336,21.3522455 185.111753,21.6128265 Z" id="形状" fill="#3C53FF"></path>
                <path d="M221.992387,21.0566578 L221.993118,21.0577517 L221.993118,21.0588457 C222.237835,21.6900601 222.592126,22.2401756 223.056722,22.7039413 C223.517666,23.1640605 224.05166,23.517701 224.655782,23.7630395 C225.262825,24.0097637 225.921004,24.130318 226.624473,24.130318 L226.652232,24.130318 C227.021864,24.130318 227.357893,24.0120975 227.619411,23.750933 C227.881659,23.4896956 228,23.1537773 228,22.7854048 C228,22.4161571 227.869971,22.0860732 227.609914,21.8241065 C227.350588,21.5530964 227.013098,21.4264889 226.638352,21.4264889 L226.574069,21.4264889 C225.841379,21.4091314 225.318343,21.1790353 224.949442,20.7740517 C224.577619,20.3656403 224.364313,19.7712559 224.364313,18.9326269 L224.364313,6.3273015 C224.364313,5.9462391 224.22771,5.60733058 223.952313,5.34383232 C223.68495,5.07916716 223.351844,4.94045315 222.975637,4.94045315 C222.596509,4.94045315 222.261941,5.08128215 222.000423,5.35586587 L221.999692,5.35630345 C221.74621,5.62344825 221.627869,5.9586373 221.627869,6.3273015 L221.627869,18.9605593 C221.627869,19.7142971 221.747671,20.4147226 221.992387,21.0566578 Z M226.638352,21.8640725 C226.908637,21.8640725 227.127786,21.9524644 227.2958,22.1293211 C227.472581,22.3061049 227.561701,22.5248237 227.561701,22.7854048 C227.561701,23.0553209 227.477694,23.2739669 227.30968,23.4414885 C227.141665,23.6090101 226.923246,23.6927344 226.652232,23.6927344 L226.624473,23.6927344 C225.972139,23.6927344 225.370939,23.5810777 224.820874,23.3577642 C224.27081,23.1343777 223.78649,22.8133372 223.366453,22.3945697 C222.947148,21.9757292 222.625729,21.4779049 222.402197,20.900878 C222.177934,20.3145889 222.066168,19.6678403 222.066168,18.9605593 L222.066168,6.3273015 C222.066168,6.05745827 222.150175,5.83407183 222.318189,5.65728805 C222.49497,5.47109622 222.714119,5.37803677 222.975637,5.37803677 C223.236425,5.37803677 223.459957,5.47109622 223.646234,5.65728805 C223.832511,5.83407183 223.926015,6.05745827 223.926015,6.3273015 L223.926015,18.9326269 C223.926015,19.8446241 224.159043,20.5565726 224.625101,21.0683996 C225.091158,21.5802266 225.73911,21.8454752 226.568955,21.8640725 L226.638352,21.8640725 Z M212.964167,23.8463263 C212.041549,23.8463263 211.164951,23.6741371 210.335106,23.3298317 C209.514757,22.9761912 208.787912,22.4829616 208.15384,21.8501427 C207.520499,21.2265861 207.025952,20.5007078 206.672391,19.6724349 C206.3181,18.844235 206.140589,17.9694324 206.140589,17.0481001 C206.140589,16.1175056 206.3181,15.2333679 206.672391,14.3958329 C207.025952,13.5582249 207.520499,12.827752 208.15384,12.2041953 C208.787912,11.5713765 209.514757,11.0828144 210.335106,10.7384361 C211.164951,10.3847956 212.041549,10.2080118 212.964167,10.2080118 C213.896282,10.2080118 214.777262,10.3847956 215.606377,10.7384361 C216.445719,11.0920766 217.177677,11.5807116 217.801522,12.2041953 C218.426098,12.8370142 218.911148,13.5722276 219.255943,14.4097626 C219.610235,15.2380355 219.787015,16.1175056 219.787015,17.0481001 C219.787015,17.9694324 219.610235,18.844235 219.255943,19.6724349 C218.911148,20.5007078 218.426098,21.2265861 217.801522,21.8501427 C217.177677,22.4736265 216.445719,22.9621886 215.606377,23.3158291 C214.777262,23.6694695 213.896282,23.8463263 212.964167,23.8463263 Z M206.269156,19.8442594 C206.645362,20.7236566 207.17059,21.4968669 207.84557,22.1606083 C208.517628,22.8318616 209.290494,23.3561597 210.161978,23.7315335 L210.16417,23.7327004 L210.167092,23.7338673 C211.051724,24.100927 211.9853,24.2839099 212.964167,24.2839099 C213.95253,24.2839099 214.89195,24.0960406 215.777313,23.7187706 C216.66706,23.3439073 217.44577,22.8241309 218.111984,22.1595143 C218.777467,21.4953353 219.293199,20.7218334 219.659908,19.8423632 C220.037576,18.9591007 220.225314,18.0263912 220.225314,17.0481001 C220.225314,16.061422 220.037576,15.1241908 219.659908,14.2405636 C219.293929,13.3527065 218.778928,12.5704528 218.114175,11.8970846 L218.112714,11.8959177 L218.111984,11.8947508 C217.44577,11.2302071 216.66706,10.7104307 215.777313,10.3354945 C214.89195,9.95822449 213.95253,9.77042819 212.964167,9.77042819 C211.983839,9.77042819 211.049533,9.95851621 210.16417,10.3354945 C209.292686,10.701752 208.518358,11.221893 207.84557,11.8937298 C207.16986,12.5582734 206.643901,13.3368076 206.268426,14.2256129 C205.890758,15.1183564 205.70229,16.060401 205.70229,17.0481001 C205.70229,18.0271205 205.890758,18.9604864 206.269156,19.8442594 Z M212.964167,21.9897319 C213.653757,21.9897319 214.301708,21.8640725 214.907291,21.6128265 C215.513604,21.3522455 216.044676,20.9892699 216.501237,20.5239726 C216.949032,20.0680105 217.29821,19.5421809 217.550231,18.9465566 C217.801522,18.3416702 217.927899,17.7088514 217.927899,17.0481001 C217.927899,16.3780867 217.801522,15.7406003 217.550231,15.1356409 C217.29821,14.5307545 216.949032,14.0003302 216.501237,13.5442952 C216.044676,13.0882601 215.50849,12.7346925 214.893411,12.4833737 C214.287829,12.2227926 213.64426,12.0925386 212.964167,12.0925386 C212.283343,12.0925386 211.640505,12.2227926 211.034192,12.4833737 C210.438106,12.7346925 209.911417,13.0882601 209.454856,13.5442952 C208.997565,14.0003302 208.638891,14.5307545 208.378103,15.1356409 C208.126081,15.7406003 208.000436,16.3780867 208.000436,17.0481001 C208.000436,17.7088514 208.126081,18.3416702 208.378103,18.9465566 C208.638891,19.5421809 208.997565,20.0680105 209.454856,20.5239726 C209.911417,20.9892699 210.438106,21.3522455 211.034192,21.6128265 C211.640505,21.8640725 212.283343,21.9897319 212.964167,21.9897319 Z M212.964167,21.5521483 C213.598239,21.5521483 214.187751,21.4371367 214.737085,21.2097391 C215.290072,20.9715478 215.77293,20.6412451 216.188584,20.217737 C216.596932,19.801668 216.915429,19.322441 217.146266,18.7771388 C217.374912,18.2263669 217.4896,17.6511633 217.4896,17.0481001 C217.4896,16.4343162 217.374181,15.8540074 217.145536,15.3035272 C216.914698,14.7494734 216.596201,14.2668186 216.190045,13.8521352 C215.775852,13.4392022 215.290072,13.1180158 214.727588,12.8883573 L214.723936,12.8868987 L214.720283,12.8852942 C214.170949,12.6489991 213.586551,12.5301222 212.964167,12.5301222 C212.341053,12.5301222 211.757385,12.6489991 211.208051,12.8852942 L211.20659,12.8859506 L211.205129,12.8865341 C210.660177,13.1159008 210.180971,13.4377436 209.764587,13.8537397 C209.348204,14.2690066 209.020941,14.7520989 208.781338,15.3060797 C208.553422,15.8558306 208.438734,16.4352643 208.438734,17.0481001 C208.438734,17.650361 208.552692,18.2248354 208.781338,18.7749509 C209.02021,19.3193779 209.347473,19.7983861 209.764587,20.214601 L209.766048,20.2161326 L209.767509,20.217737 C210.183893,20.6421202 210.663099,20.97235 211.20659,21.2102496 C211.755924,21.4375743 212.340322,21.5521483 212.964167,21.5521483 Z M195.430032,23.3298317 C196.259878,23.6741371 197.136475,23.8463263 198.059093,23.8463263 C198.991208,23.8463263 199.872188,23.6694695 200.701303,23.3158291 C201.540645,22.9621886 202.272604,22.4736265 202.897179,21.8501427 C203.521755,21.2265861 204.006074,20.5007078 204.350869,19.6724349 C204.705161,18.844235 204.882672,17.9694324 204.882672,17.0481001 C204.882672,16.1175056 204.705161,15.2380355 204.350869,14.4097626 C204.006074,13.5722276 203.521755,12.8370142 202.897179,12.2041953 C202.272604,11.5807116 201.540645,11.0920766 200.701303,10.7384361 C199.872188,10.3847956 198.991208,10.2080118 198.059093,10.2080118 C197.136475,10.2080118 196.259878,10.3847956 195.430032,10.7384361 C194.610414,11.0828144 193.882838,11.5713765 193.249497,12.2041953 C192.615425,12.827752 192.121608,13.5582249 191.767317,14.3958329 C191.413026,15.2333679 191.235515,16.1175056 191.235515,17.0481001 C191.235515,17.9694324 191.413026,18.844235 191.767317,19.6724349 C192.121608,20.5007078 192.615425,21.2265861 193.249497,21.8501427 C193.882838,22.4829616 194.610414,22.9761912 195.430032,23.3298317 Z M192.940496,22.1606812 C192.265516,21.4969398 191.740289,20.7237296 191.364082,19.8442594 C190.985685,18.9604864 190.797216,18.0271205 190.797216,17.0481001 C190.797216,16.060401 190.985685,15.1183564 191.363352,14.2256129 C191.738828,13.3368076 192.264786,12.5582734 192.940496,11.8935839 C193.613285,11.2218201 194.387612,10.701752 195.259096,10.3354945 C196.144459,9.95851621 197.078765,9.77042819 198.059093,9.77042819 C199.048187,9.77042819 199.986876,9.95829742 200.87297,10.3356404 C201.761986,10.7105037 202.541427,11.2302801 203.20691,11.8947508 L203.207641,11.8959177 L203.209102,11.8970846 C203.873854,12.5704528 204.389586,13.3527794 204.755565,14.2407095 C205.132502,15.1243367 205.32097,16.061422 205.32097,17.0481001 C205.32097,18.0263183 205.132502,18.9589548 204.754835,19.8421444 C204.388855,20.7216875 203.872393,21.4952624 203.20691,22.1595143 C202.541427,22.824058 201.761986,23.3438344 200.87297,23.7186977 C199.986876,24.0960406 199.048187,24.2839099 198.059093,24.2839099 C197.080226,24.2839099 196.14665,24.100927 195.262018,23.7338673 L195.259096,23.7327004 L195.256904,23.7315335 C194.386151,23.3561597 193.613285,22.8319345 192.940496,22.1606812 Z M200.002217,21.6128265 C199.396634,21.8640725 198.748683,21.9897319 198.059093,21.9897319 C197.378269,21.9897319 196.735431,21.8640725 196.129849,21.6128265 C195.533032,21.3522455 195.006344,20.9892699 194.549783,20.5239726 C194.092491,20.0680105 193.733817,19.5421809 193.473029,18.9465566 C193.221007,18.3416702 193.095362,17.7088514 193.095362,17.0481001 C193.095362,16.3780867 193.221007,15.7406003 193.473029,15.1356409 C193.733817,14.5307545 194.092491,14.0003302 194.549783,13.5442952 C195.006344,13.0882601 195.533032,12.7346925 196.129849,12.4833737 C196.735431,12.2227926 197.378269,12.0925386 198.059093,12.0925386 C198.739186,12.0925386 199.382755,12.2227926 199.988337,12.4833737 C200.603416,12.7346925 201.139602,13.0882601 201.596163,13.5442952 C202.043958,14.0003302 202.393136,14.5307545 202.645157,15.1356409 C202.897179,15.7406003 203.022825,16.3780867 203.022825,17.0481001 C203.022825,17.7088514 202.897179,18.3416702 202.645157,18.9465566 C202.393136,19.5421809 202.043958,20.0680105 201.596163,20.5239726 C201.139602,20.9892699 200.60853,21.3522455 200.002217,21.6128265 Z M199.832011,21.209812 C199.282677,21.4371367 198.693165,21.5521483 198.059093,21.5521483 C197.435248,21.5521483 196.85085,21.4375743 196.301516,21.2102496 C195.758026,20.97235 195.278819,20.6421202 194.862436,20.217737 L194.860975,20.2161326 L194.859514,20.214601 C194.442399,19.7983861 194.115136,19.3193779 193.876264,18.7749509 C193.647618,18.2248354 193.53366,17.650361 193.53366,17.0481001 C193.53366,16.4352643 193.648348,15.8558306 193.876264,15.3060797 C194.115867,14.7520989 194.44313,14.2690066 194.859514,13.8537397 C195.275897,13.4377436 195.755104,13.1159008 196.300055,12.8865341 L196.301516,12.8859506 L196.302977,12.8852942 C196.852311,12.6489991 197.435979,12.5301222 198.059093,12.5301222 C198.681477,12.5301222 199.265875,12.6489991 199.81521,12.8852942 L199.818862,12.8868987 L199.822514,12.8883573 C200.384998,13.1180158 200.870779,13.4392022 201.284971,13.8521352 C201.691858,14.2668186 202.009624,14.7494734 202.240462,15.3035272 C202.469107,15.8540074 202.584526,16.4343162 202.584526,17.0481001 C202.584526,17.6513091 202.469838,18.2265857 202.241192,18.7774306 C202.010355,19.3226598 201.691858,19.8017409 201.28351,20.217737 C200.867857,20.6412451 200.384998,20.9715478 199.832011,21.209812 Z M177.295428,28.5227094 C177.034641,28.5227094 176.811108,28.42965 176.624101,28.2435311 C176.437824,28.0574122 176.345051,27.8293582 176.345051,27.559515 L176.345051,17.0481001 C176.345051,16.1175056 176.521831,15.2333679 176.876123,14.3958329 C177.230414,13.5582249 177.72423,12.827752 178.358302,12.2041953 C178.982878,11.5807116 179.709723,11.0920766 180.539568,10.7384361 C181.37818,10.3847956 182.25916,10.2080118 183.181778,10.2080118 C184.105127,10.2080118 184.980994,10.3847956 185.810839,10.7384361 C186.649451,11.0920766 187.381409,11.5807116 188.005985,12.2041953 C188.63056,12.827752 189.11488,13.5582249 189.459675,14.3958329 C189.813966,15.2333679 189.991477,16.1175056 189.991477,17.0481001 C189.991477,17.9694324 189.813966,18.844235 189.459675,19.6724349 C189.11488,20.5007078 188.63056,21.2265861 188.005985,21.8501427 C187.381409,22.4736265 186.649451,22.9621886 185.810839,23.3158291 C184.980994,23.6694695 184.105127,23.8463263 183.181778,23.8463263 C182.212408,23.8463263 181.299286,23.6602074 180.441682,23.2879696 C179.774007,22.9909961 179.174268,22.6039534 178.642466,22.1266226 C178.491253,21.9906071 178.345153,21.8472984 178.204167,21.6965509 L178.204167,27.559515 C178.204167,27.8386933 178.12016,28.0666744 177.952876,28.2435311 C177.784862,28.42965 177.565712,28.5227094 177.295428,28.5227094 Z M176.472157,14.2256129 C176.848364,13.3368076 177.374322,12.5582734 178.049302,11.8936568 C178.714055,11.2302801 179.487652,10.7109412 180.367171,10.336005 L180.367901,10.3357133 L180.368632,10.3353486 C181.262761,9.95866207 182.20145,9.77042819 183.181778,9.77042819 C184.162106,9.77042819 185.097143,9.95851621 185.981776,10.3356404 C186.870791,10.7105037 187.650232,11.2302801 188.315716,11.8947508 C188.98193,12.5598779 189.498391,13.3387767 189.864371,14.227582 C190.241307,15.1196691 190.429776,16.0611303 190.429776,17.0481001 C190.429776,18.0263183 190.241307,18.9590278 189.86364,19.8422903 C189.497661,20.7217604 188.981199,21.4952624 188.315716,22.1595143 C187.650232,22.824058 186.870791,23.3437615 185.981776,23.7186977 C185.097143,24.0958219 184.162106,24.2839099 183.181778,24.2839099 C182.154699,24.2839099 181.181676,24.0863409 180.266362,23.6892337 L180.264901,23.6884315 L180.26271,23.6876293 C179.673929,23.4254437 179.13336,23.0965267 178.642466,22.7012429 L178.642466,27.559515 C178.642466,27.9311693 178.528508,28.270953 178.275026,28.5403586 C178.01716,28.823694 177.677479,28.9602931 177.295428,28.9602931 C176.91703,28.9602931 176.582463,28.8201934 176.31437,28.5529027 C176.043355,28.282476 175.906752,27.9421818 175.906752,27.559515 L175.906752,17.0481001 C175.906752,16.060401 176.09449,15.1183564 176.472157,14.2256129 Z M183.181778,21.9897319 C183.872099,21.9897319 184.514936,21.8640725 185.111753,21.6128265 C185.717336,21.3522455 186.248407,20.9892699 186.705699,20.5239726 C187.16226,20.0680105 187.516551,19.5421809 187.767842,18.9465566 C188.019864,18.3416702 188.14551,17.7088514 188.14551,17.0481001 C188.14551,16.3780867 188.019864,15.7406003 187.767842,15.1356409 C187.516551,14.5307545 187.16226,14.0003302 186.705699,13.5442952 C186.248407,13.0882601 185.717336,12.7346925 185.111753,12.4833737 C184.50544,12.2227926 183.862602,12.0925386 183.181778,12.0925386 C182.501685,12.0925386 181.858117,12.2227926 181.252534,12.4833737 C180.646221,12.7346925 180.115149,13.0882601 179.658588,13.5442952 C179.202027,14.0003302 178.842622,14.5307545 178.581835,15.1356409 C178.329813,15.7406003 178.204167,16.3780867 178.204167,17.0481001 C178.204167,17.7088514 178.329813,18.3416702 178.581835,18.9465566 C178.842622,19.5421809 179.202027,20.0680105 179.658588,20.5239726 C180.115149,20.9892699 180.646221,21.3522455 181.252534,21.6128265 C181.858117,21.8640725 182.501685,21.9897319 183.181778,21.9897319 Z M183.181778,21.5521483 C183.816581,21.5521483 184.400979,21.4369179 184.940086,21.2102496 C185.493073,20.9719853 185.976662,20.6415368 186.392315,20.217737 L186.393776,20.2161326 L186.395237,20.214601 C186.811621,19.7988966 187.13377,19.3208365 187.363877,18.7776494 C187.592523,18.2267316 187.707211,17.6513821 187.707211,17.0481001 C187.707211,16.4343162 187.592523,15.8540074 187.363147,15.3035272 C187.13304,14.7507132 186.810891,14.268569 186.395237,13.8537397 C185.980315,13.4389104 185.497456,13.1171406 184.943739,12.8874822 L184.940817,12.8863882 L184.937895,12.8852942 C184.38856,12.6489991 183.804893,12.5301222 183.181778,12.5301222 C182.559394,12.5301222 181.974996,12.6489991 181.425662,12.8852942 L181.42347,12.8863882 L181.420548,12.8874822 C180.866831,13.1171406 180.383972,13.4389104 179.968319,13.8537397 C179.552666,14.2690795 179.224673,14.7520989 178.9858,15.3061527 C178.757154,15.8558306 178.642466,16.4352643 178.642466,17.0481001 C178.642466,17.650361 178.756424,18.2248354 178.985069,18.7749509 C179.223942,19.3193779 179.551935,19.7983861 179.968319,20.214601 L179.96978,20.2161326 L179.971241,20.217737 C180.387625,20.6412451 180.870484,20.9715478 181.42347,21.209812 C181.972805,21.4374284 182.557933,21.5521483 183.181778,21.5521483 Z" id="形状" fill="#3C53FF"></path>
            </g>
        </g>
    </g>
</svg>